<svg height="496pt" viewBox="0 -112 496 496" width="496pt" xmlns="http://www.w3.org/2000/svg" xmlns:xlink="http://www.w3.org/1999/xlink"><linearGradient id="a" gradientUnits="userSpaceOnUse" x1="248" x2="248" y1="272" y2="0"><stop offset="0" stop-color="#9f2fff"/><stop offset="1" stop-color="#0bb1d3"/></linearGradient><path d="m472 0h-448c-13.230469 0-24 10.769531-24 24v16c0 10.414062 6.710938 19.214844 16 22.527344v74.570312c-8.6875 4.421875-13.289062 8.878906-13.65625 9.246094l-2.34375 2.34375v123.3125h496v-123.3125l-2.34375-2.34375c-.367188-.367188-4.96875-4.824219-13.65625-9.246094v-74.570312c9.289062-3.3125 16-12.113282 16-22.527344v-16c0-13.230469-10.769531-24-24-24zm-416 144c21.71875 0 34.945312 7.945312 40 11.726562v36.273438h-16c0-8.824219-7.175781-16-16-16h-16c-8.824219 0-16 7.175781-16 16h-16v-36.273438c5.097656-3.804687 18.3125-11.726562 40-11.726562zm56 11.753906c5-3.769531 18.136719-11.753906 40-11.753906 21.71875 0 34.945312 7.945312 40 11.726562v36.273438h-16c0-8.824219-7.175781-16-16-16h-16c-8.824219 0-16 7.175781-16 16h-16zm96 0c5-3.769531 18.136719-11.753906 40-11.753906 21.71875 0 34.945312 7.945312 40 11.726562v36.273438h-16c0-8.824219-7.175781-16-16-16h-16c-8.824219 0-16 7.175781-16 16h-16zm96 0c5-3.769531 18.136719-11.753906 40-11.753906 21.71875 0 34.945312 7.945312 40 11.726562v36.273438h-16c0-8.824219-7.175781-16-16-16h-16c-8.824219 0-16 7.175781-16 16h-16zm96 0c5-3.769531 18.136719-11.753906 40-11.753906 21.71875 0 34.945312 7.945312 40 11.726562v36.273438h-16c0-8.824219-7.175781-16-16-16h-16c-8.824219 0-16 7.175781-16 16h-16zm48.007812 52.246094h-16.007812v-16h16zm-208.007812 16h16c8.824219 0 16-7.175781 16-16h16v48h-80v-48h16c0 8.824219 7.175781 16 16 16zm0-16v-16h16l.007812 16zm64 0h16c0 8.824219 7.175781 16 16 16h16c8.824219 0 16-7.175781 16-16h16v48h-80zm32 0v-16h16l.007812 16zm-175.992188 0h-16.007812v-16h16zm-96 0h-16.007812v-16h16zm-48.007812 48v-48h16c0 8.824219 7.175781 16 16 16h16c8.824219 0 16-7.175781 16-16h16v48zm96-48h16c0 8.824219 7.175781 16 16 16h16c8.824219 0 16-7.175781 16-16h16v48h-80zm288 48v-48h16c0 8.824219 7.175781 16 16 16h16c8.824219 0 16-7.175781 16-16h16v48zm40-128c-24.296875 0-40.199219 8.449219-48 13.878906-7.800781-5.429687-23.703125-13.878906-48-13.878906s-40.199219 8.449219-48 13.878906c-7.800781-5.429687-23.703125-13.878906-48-13.878906s-40.199219 8.449219-48 13.878906c-7.800781-5.429687-23.703125-13.878906-48-13.878906s-40.199219 8.449219-48 13.878906c-7.800781-5.429687-23.703125-13.878906-48-13.878906-9.199219 0-17.152344 1.257812-24 3.070312v-67.070312h162.742188c6.320312 0 12.496093 2.558594 16.96875 7.023438l36.289062 36.289062 36.289062-36.289062c4.464844-4.464844 10.648438-7.023438 16.96875-7.023438h162.742188v67.070312c-6.847656-1.8125-14.800781-3.070312-24-3.070312zm40-88c0 4.40625-3.59375 8-8 8h-170.742188c-10.683593 0-20.730468 4.160156-28.28125 11.710938l-24.976562 24.976562-24.976562-24.976562c-7.550782-7.550782-17.589844-11.710938-28.28125-11.710938h-170.742188c-4.40625 0-8-3.59375-8-8v-16c0-4.40625 3.59375-8 8-8h448c4.40625 0 8 3.59375 8 8zm0 0" fill="url(#a)"/></svg>