<svg height="496pt" viewBox="0 0 496 496" width="496pt" xmlns="http://www.w3.org/2000/svg" xmlns:xlink="http://www.w3.org/1999/xlink"><linearGradient id="a" gradientUnits="userSpaceOnUse" x1="248" x2="248" y1="496" y2="0"><stop offset="0" stop-color="#9f2fff"/><stop offset="1" stop-color="#0bb1d3"/></linearGradient><path d="m96 400h16v16h-16zm-32 16h16v-16h-16zm-32 0h16v-16h-16zm464-264v256c0 22.054688-17.945312 40-40 40h-104v32h32v16h-272v-16h32v-32h-104c-22.054688 0-40-17.945312-40-40v-256c0-22.054688 17.945312-40 40-40h42.175781c-1.390625-6.3125-2.175781-12.769531-2.175781-19.222656v-3.335938c0-49.3125 40.128906-89.441406 89.449219-89.441406 16.199219 0 32.117187 4.40625 46.015625 12.742188l6.933594 4.167968c15.457031 9.273438 35.753906 9.273438 51.203124 0l6.933594-4.167968c13.90625-8.335938 29.816406-12.742188 46.015625-12.742188 49.320313 0 89.449219 40.128906 89.449219 89.441406v3.335938c0 6.453125-.785156 12.910156-2.175781 19.222656h42.175781c22.054688 0 40 17.945312 40 40zm-400-59.222656c0 11.335937 2.679688 22.695312 7.761719 32.839844 31.863281 63.734374 52.238281 131.941406 60.566406 202.71875l1.625 13.808593c.65625 5.617188 5.421875 9.855469 11.085937 9.855469 5.128907 0 9.578126-3.480469 10.832032-8.457031l22.554687-90.199219c4.308594-17.28125 19.765625-29.34375 37.574219-29.34375s33.265625 12.0625 37.574219 29.34375l22.554687 90.199219c1.253906 4.976562 5.703125 8.457031 10.832032 8.457031 5.664062 0 10.429687-4.238281 11.085937-9.855469l1.625-13.808593c8.328125-70.777344 28.703125-138.984376 60.566406-202.71875 5.082031-10.144532 7.761719-21.503907 7.761719-32.839844v-3.335938c0-40.496094-32.945312-73.441406-73.449219-73.441406-13.304687 0-26.375 3.617188-37.78125 10.464844l-6.9375 4.167968c-20.441406 12.253907-47.230469 12.253907-67.671875 0l-6.9375-4.167968c-11.398437-6.847656-24.46875-10.464844-37.773437-10.464844-40.503907 0-73.449219 32.945312-73.449219 73.441406zm-80 59.222656v216h98.425781l24 16h341.574219v-232c0-13.230469-10.769531-24-24-24h-47.398438c-.679687 1.59375-1.273437 3.222656-2.050781 4.777344-31.03125 62.070312-50.878906 128.496094-58.992187 197.429687l-1.621094 13.808594c-1.609375 13.671875-13.203125 23.984375-26.976562 23.984375-12.488282 0-23.320313-8.464844-26.34375-20.574219l-22.554688-90.203125c-2.542969-10.144531-11.605469-17.222656-22.0625-17.222656s-19.519531 7.078125-22.0625 17.222656l-22.554688 90.203125c-3.023437 12.109375-13.863281 20.574219-26.34375 20.574219-13.773437 0-25.367187-10.3125-26.976562-23.992188l-1.621094-13.808593c-8.113281-68.925781-27.960937-135.351563-58.992187-197.429688-.777344-1.554687-1.371094-3.183593-2.050781-4.777343h-47.398438c-13.230469.007812-24 10.777343-24 24.007812zm464 256v-8h-346.425781l-24-16h-93.574219v24c0 13.230469 10.769531 24 24 24h120v48h176v-32h-160v-16h280c13.230469 0 24-10.769531 24-24zm-153.40625-347.472656-13.1875-9.0625-82.015625 119.304687-33.238281-39.890625-12.296875 10.242188 46.761719 56.109375zm0 0" fill="url(#a)"/></svg>