<svg height="496pt" viewBox="0 0 496 496" width="496pt" xmlns="http://www.w3.org/2000/svg" xmlns:xlink="http://www.w3.org/1999/xlink"><linearGradient id="a" gradientUnits="userSpaceOnUse" x1="248" x2="248" y1="496" y2="0"><stop offset="0" stop-color="#9f2fff"/><stop offset="1" stop-color="#0bb1d3"/></linearGradient><path d="m172.59375 256h-116.59375v240h384v-240h-116.59375l36.273438-64.769531c10.679687-19.0625 16.320312-40.695313 16.320312-63.230469 0-70.574219-57.425781-128-128-128s-128 57.425781-128 128v.6875c0 21.847656 5.640625 43.480469 16.320312 62.542969zm131.878906 133.535156 119.527344-107.574218v190.726562zm-12.375 10.890625 114.390625 79.574219h-316.976562l114.390625-79.574219c12.496094 10.03125 27.984375 15.574219 44.097656 15.574219s31.601562-5.542969 44.097656-15.574219zm-220.097656 72.261719v-190.726562l119.527344 107.574218zm339.152344-200.6875-126.664063 114c-10.03125 9.023438-22.992187 14-36.488281 14s-26.457031-4.976562-36.488281-14l-126.664063-114h96.703125l47.5625 84.929688c3.824219 6.832031 11.054688 11.070312 18.886719 11.070312s15.0625-4.238281 18.878906-11.070312l47.570313-84.929688zm-275.152344-144c0-61.761719 50.238281-112 112-112s112 50.238281 112 112.6875c0 19.121094-4.9375 38.039062-14.273438 54.71875l-92.804687 165.707031c-1.984375 3.558594-7.851563 3.566407-9.851563 0l-92.796874-165.699219c-9.335938-16.6875-14.273438-35.605468-14.273438-54.726562zm112 80c44.113281 0 80-35.886719 80-80s-35.886719-80-80-80-80 35.886719-80 80 35.886719 80 80 80zm0-144c35.289062 0 64 28.710938 64 64s-28.710938 64-64 64-64-28.710938-64-64 28.710938-64 64-64zm232 56h-16v-16h16zm-16 16h16v16h-16zm0-16v16h-16v-16zm32 0v16h-16v-16zm-80 88h-16v-16h16zm-16 16h16v16h-16zm0 0h-16v-16h16zm16 0v-16h16v16zm8-192h-16v-16h16zm-16 16h16v16h-16zm0 0h-16v-16h16zm16 0v-16h16v16zm-392 32h-16v-16h16zm-16 16h16v16h-16zm0 0h-16v-16h16zm16 0v-16h16v16zm32 96v16h-16v-16zm-16 32h16v16h-16zm0-16v16h-16v-16zm16 16v-16h16v16zm0 0" fill="url(#a)"/></svg>