<svg height="496pt" viewBox="0 0 496 496" width="496pt" xmlns="http://www.w3.org/2000/svg" xmlns:xlink="http://www.w3.org/1999/xlink"><linearGradient id="a" gradientUnits="userSpaceOnUse" x1="248" x2="248" y1="496" y2="0"><stop offset="0" stop-color="#9f2fff"/><stop offset="1" stop-color="#0bb1d3"/></linearGradient><path d="m168 136c-28.617188 0-38.734375-19.59375-39.160156-20.425781l14.257812-7.261719c.261719.480469 6.519532 11.6875 24.902344 11.6875s24.640625-11.207031 24.894531-11.679688l14.257813 7.265626c-.417969.820312-10.535156 20.414062-39.152344 20.414062zm328 24c0 53.511719-37.742188 98.320312-88 109.34375v34.65625h8v160c0 17.648438-14.351562 32-32 32s-32-14.351562-32-32v-160h8v-34.65625c-8.398438-1.839844-16.414062-4.6875-24-8.304688v234.960938h-336v-496h336v58.960938c14.574219-6.953126 30.808594-10.960938 48-10.960938 61.761719 0 112 50.238281 112 112zm-176 91.785156c-28.976562-20.265625-48-53.824218-48-91.785156 0-1.640625.175781-3.230469.246094-4.855469l-2.710938 6.101563c-14.414062 32.433594-23.710937 66.753906-27.632812 102.019531-1.558594 14.101563-13.4375 24.734375-27.628906 24.734375-11.984376 0-22.585938-7.640625-26.378907-19.007812l-16.949219-50.871094c-.839843-2.535156-5.042968-2.535156-5.882812 0l-16.949219 50.871094c-3.800781 11.367187-14.410156 19.007812-26.386719 19.007812-14.183593 0-26.070312-10.632812-27.636718-24.734375-3.914063-35.265625-13.210938-69.585937-27.617188-102.019531l-4.90625-11.03125c-3.695312-8.304688-5.566406-17.125-5.566406-26.214844v-3.425781c0-35.605469 28.96875-64.574219 64.566406-64.574219 17.25 0 33.464844 6.71875 45.65625 18.910156l1.777344 1.777344 1.777344-1.777344c12.191406-12.191406 28.40625-18.910156 45.65625-18.910156 35.039062 0 63.589844 28.070312 64.488281 62.902344 8.148437-20.574219 22.191406-38.167969 40.085937-50.679688v-52.222656h-304.007812v464h304zm-133.878906-38.730468 16.949218 50.875c1.609376 4.832031 6.113282 8.070312 11.203126 8.070312 6.023437 0 11.0625-4.511719 11.726562-10.496094 4.105469-36.894531 13.832031-72.816406 28.902344-106.75l4.90625-11.035156c2.785156-6.246094 4.191406-12.886719 4.191406-19.71875v-3.425781c0-26.78125-21.792969-48.574219-48.566406-48.574219-12.976563 0-25.167969 5.046875-34.34375 14.222656l-13.089844 13.089844-13.089844-13.089844c-9.175781-9.175781-21.367187-14.222656-34.34375-14.222656-26.773437 0-48.566406 21.792969-48.566406 48.566406v3.433594c0 6.839844 1.40625 13.480469 4.183594 19.71875l4.90625 11.035156c15.078125 33.933594 24.804687 69.847656 28.902344 106.75.671874 5.984375 5.710937 10.496094 11.734374 10.496094 5.089844 0 9.59375-3.238281 11.203126-8.070312l16.949218-50.867188c2.609375-7.816406 9.890625-13.0625 18.121094-13.0625s15.511719 5.246094 18.121094 13.054688zm181.878906 106.945312v16h32v-16zm32 144v-112h-32v112c0 8.824219 7.175781 16 16 16s16-7.175781 16-16zm-8-192.40625c-2.65625.191406-5.296875.40625-8 .40625s-5.34375-.214844-8-.40625v32.40625h16zm88-111.59375c0-52.9375-43.0625-96-96-96s-96 43.0625-96 96 43.0625 96 96 96 96-43.0625 96-96zm-72-24h32v48h-32v32h-48v-32h-32v-48h32v-32h48zm-16 16v-32h-16v32h-32v16h32v32h16v-32h32v-16zm-360 168h272v-16h-272zm48 32h224v-16h-224zm-16-16h-32v16h32zm-32 80h272v-16h-272zm256 32h16v-16h-16zm-256 0h240v-16h-240zm256-64h16v-16h-16zm-32-16v16h16v-16zm-80 0v16h64v-16zm-80 0v16h64v-16zm-32 16h16v-16h-16zm-16-16h-16v16h16zm0 0" fill="url(#a)"/></svg>