<svg height="496pt" viewBox="0 0 496 496" width="496pt" xmlns="http://www.w3.org/2000/svg" xmlns:xlink="http://www.w3.org/1999/xlink"><linearGradient id="a" gradientUnits="userSpaceOnUse" x1="248" x2="248" y1="496" y2="0"><stop offset="0" stop-color="#9f2fff"/><stop offset="1" stop-color="#0bb1d3"/></linearGradient><path d="m371.328125 80.167969 3.230469-16.167969h1.441406c13.230469 0 24-10.769531 24-24v-16c0-13.230469-10.769531-24-24-24h-352c-13.230469 0-24 10.769531-24 24v16c0 13.230469 10.769531 24 24 24h1.441406l10.4375 52.191406c-5.734375 2.617188-8.96875 5.585938-9.535156 6.152344l-2.34375 2.34375v86.625l2.34375 2.34375c.578125.574219 3.800781 3.542969 9.535156 6.152344l-10.4375 52.191406h-1.441406c-13.230469 0-24 10.769531-24 24v16c0 13.230469 10.769531 24 24 24h320v16h-16v104c0 22.054688 17.945312 40 40 40s40-17.945312 40-40v-104h-16v-18.335938c59.136719-11.273437 104-63.296874 104-125.664062 0-69.457031-55.640625-126.046875-124.671875-127.832031zm-355.328125-40.167969v-16c0-4.414062 3.59375-8 8-8h352c4.40625 0 8 3.585938 8 8v16c0 4.414062-3.59375 8-8 8h-136c-12.519531 0-24.488281 5.976562-32 16l-8 10.664062-8-10.671874c-7.511719-10.015626-19.480469-15.992188-32-15.992188h-136c-4.40625 0-8-3.585938-8-8zm25.761719 24h118.238281c7.511719 0 14.695312 3.585938 19.199219 9.59375l20.800781 27.742188 20.800781-27.734376c4.503907-6.015624 11.6875-9.601562 19.199219-9.601562h118.238281l-3.335937 16.664062c-31.335938 3.199219-59.269532 17.832032-79.804688 39.535157-4.121094-3.0625-13.121094-8.199219-27.097656-8.199219-11.191406 0-19.128906 3.296875-24 6.183594-4.871094-2.886719-12.808594-6.183594-24-6.183594s-19.128906 3.296875-24 6.183594c-4.871094-2.886719-12.808594-6.183594-24-6.183594s-19.128906 3.296875-24 6.183594c-4.871094-2.886719-12.808594-6.183594-24-6.183594s-19.128906 3.296875-24 6.183594c-4.871094-2.886719-12.808594-6.183594-24-6.183594-1.625 0-3.097656.152344-4.585938.28125zm198.285156 143.054688c-3.582031-.832032-6.34375-2.03125-8.046875-3.046876v-28.007812h12.214844c-2.582032 9.953125-4.085938 20.328125-4.167969 31.054688zm-24.046875-3.078126c-2.816406 1.695313-8.089844 4.023438-16 4.023438-7.886719 0-13.199219-2.328125-16-3.992188v-28.007812h32zm-48 0c-2.816406 1.695313-8.089844 4.023438-16 4.023438-7.886719 0-13.199219-2.328125-16-3.992188v-28.007812h32zm-48 0c-2.816406 1.695313-8.089844 4.023438-16 4.023438-7.886719 0-13.199219-2.328125-16-3.992188v-28.007812h32zm-80-71.96875c2.832031-1.695312 8.136719-4.007812 16-4.007812 7.886719 0 13.199219 2.328125 16 3.992188v28.007812h-32zm96 .015626c2.816406-1.695313 8.089844-4.023438 16-4.023438 7.886719 0 13.199219 2.328125 16 3.992188v28.007812h-32zm48 0c2.816406-1.695313 8.089844-4.023438 16-4.023438 7.886719 0 13.199219 2.328125 16 3.992188v28.007812h-32zm-64 27.976562h-32v-27.976562c2.816406-1.695313 8.089844-4.023438 16-4.023438 7.886719 0 13.199219 2.328125 16 3.992188zm129.425781 0h-17.425781v-27.976562c2.816406-1.695313 8.089844-4.023438 16-4.023438 7.886719 0 13.199219 2.328125 16 3.992188v1.671874c-5.832031 8.136719-10.761719 16.945313-14.574219 26.335938zm-177.425781 16v27.976562c-2.816406 1.695313-8.089844 4.023438-16 4.023438-7.886719 0-13.199219-2.328125-16-3.992188v-28.007812zm-20.585938 47.71875c1.488282.128906 2.960938.28125 4.585938.28125 11.191406 0 19.128906-3.296875 24-6.183594 4.871094 2.886719 12.808594 6.183594 24 6.183594s19.128906-3.296875 24-6.183594c4.871094 2.886719 12.808594 6.183594 24 6.183594s19.128906-3.296875 24-6.183594c4.871094 2.886719 12.808594 6.183594 24 6.183594s19.128906-3.296875 24-6.183594c3.792969 2.246094 9.433594 4.71875 17.039062 5.71875 2.128907 17.488282 7.808594 33.871094 16.28125 48.464844h-17.320312c-7.511719 0-14.695312-3.585938-19.199219-9.59375l-20.800781-27.742188-20.800781 27.734376c-4.503907 6.015624-11.6875 9.601562-19.199219 9.601562h-118.238281zm-35.414062 88.28125v-16c0-4.414062 3.59375-8 8-8h136c12.519531 0 24.488281-5.976562 32-16l8-10.664062 8 10.671874c7.511719 10.015626 19.480469 15.992188 32 15.992188h28.238281c10.425781 12.96875 23.289063 23.878906 37.929688 32h-282.167969c-4.40625 0-8-3.585938-8-8zm376 56v16h-48v-16zm-24 112c-13.230469 0-24-10.769531-24-24v-56h48v56c0 13.230469-10.769531 24-24 24zm8-128h-16v-16h8c2.703125 0 5.34375-.238281 8-.40625zm-8-32c-61.761719 0-112-50.238281-112-112s50.238281-112 112-112 112 50.238281 112 112-50.238281 112-112 112zm61.425781-163.222656c11.972657 14.34375 18.574219 32.535156 18.574219 51.222656 0 41.824219-32.289062 76.207031-73.238281 79.65625l-10.890625-67.746094c5.882812-2.636718 9.199218-5.679687 9.777344-6.261718l2.351562-2.335938v-82.871094c15.824219 1.597656 30.9375 7.878906 43.222656 18.132813l10.257813-12.277344c-17.214844-14.375-39.046875-22.296875-61.480469-22.296875-52.9375 0-96 43.0625-96 96s43.0625 96 96 96 96-43.0625 96-96c0-22.433594-7.921875-44.265625-22.296875-61.480469zm-69.425781 47.214844c-2.832031 1.695312-8.136719 4.007812-16 4.007812-7.886719 0-13.199219-2.328125-16-3.992188v-28.007812h32zm-48-.015626c-2.816406 1.695313-8.089844 4.023438-16 4.023438-2.808594 0-5.433594-.390625-7.953125-.976562.136719-11.015626 2.503906-21.496094 6.679687-31.023438h17.273438zm41.625-74.617187c2.742188.800781 4.941406 1.792969 6.375 2.648437v27.992188h-55.847656c11.863281-15.734375 29.34375-26.960938 49.472656-30.640625zm-64.082031 94.207031c2.113281.257813 4.257812.433594 6.457031.433594 11.191406 0 19.128906-3.296875 24-6.183594 4.871094 2.886719 12.808594 6.183594 24 6.183594 1.519531 0 2.886719-.144531 4.289062-.257812l10.222657 63.648437c-34.480469-4.101563-62.304688-30.183594-68.96875-63.824219zm0 0" fill="url(#a)"/></svg>