<svg height="496pt" viewBox="0 0 496 496" width="496pt" xmlns="http://www.w3.org/2000/svg" xmlns:xlink="http://www.w3.org/1999/xlink"><linearGradient id="a" gradientUnits="userSpaceOnUse" x1="248" x2="248" y1="496" y2="0"><stop offset="0" stop-color="#9f2fff"/><stop offset="1" stop-color="#0bb1d3"/></linearGradient><path d="m228.625 299.296875c-7.304688-7.289063-17.007812-11.296875-27.320312-11.296875-.03125 0-.074219 0-.113282 0-7.625.023438-15.007812 2.265625-21.367187 6.496094l-9.609375 6.40625c-6.078125 4.050781-14.359375 4.050781-20.4375 0l-9.609375-6.40625c-6.359375-4.238282-13.761719-6.496094-21.390625-6.496094-.023438 0-.050782 0-.074219 0-10.328125 0-20.03125 4.015625-27.335937 11.3125-7.328126 7.3125-11.359376 17.039062-11.359376 27.390625v3.386719c0 4.941406.929688 9.78125 2.863282 14.613281 8.890625 22.21875 15.386718 45.441406 19.3125 69.023437 1.761718 10.585938 10.832031 18.273438 22.0625 18.273438 10.738281 0 19.808594-7.6875 21.578125-18.28125l3.441406-20.621094c.878906-5.265625 5.390625-9.097656 10.734375-9.097656s9.855469 3.832031 10.734375 9.097656l3.441406 20.628906c1.769531 10.585938 10.839844 18.273438 22.070313 18.273438 10.738281 0 19.808594-7.6875 21.578125-18.28125 3.929687-23.574219 10.421875-46.796875 19.40625-69.253906 1.839843-4.601563 2.769531-9.433594 2.769531-14.375v-3.386719c0-10.359375-4.039062-20.09375-11.375-27.40625zm-4.625 30.792969c0 2.902344-.542969 5.742187-1.71875 8.679687-9.3125 23.269531-16.121094 47.605469-20.234375 72.320313-.480469 2.847656-2.917969 4.910156-6.292969 4.910156-2.882812 0-5.320312-2.0625-5.800781-4.902344l-3.441406-20.625c-2.160157-13.015625-13.3125-22.472656-26.511719-22.472656s-24.351562 9.457031-26.519531 22.472656l-3.441407 20.617188c-.472656 2.847656-2.910156 4.910156-6.285156 4.910156-2.882812 0-5.320312-2.0625-5.800781-4.902344-4.121094-24.722656-10.929687-49.058594-20.335937-72.570312-1.074219-2.695313-1.617188-5.535156-1.617188-8.4375v-3.386719c0-6.070313 2.367188-11.78125 6.664062-16.070313 4.289063-4.28125 9.984376-6.632812 16.039063-6.632812h.039063c4.480468.007812 8.816406 1.320312 12.546874 3.816406l9.613282 6.40625c11.355468 7.5625 26.832031 7.5625 38.175781 0l9.609375-6.40625c3.726562-2.488281 8.066406-3.808594 12.542969-3.816406h.066406c6.046875 0 11.734375 2.351562 16.015625 6.625 4.304688 4.296875 6.671875 10 6.671875 16.078125v3.386719zm272-47.441406c0-11.792969-5.847656-18.128907-10.121094-22.753907-3.671875-3.964843-5.878906-6.359375-5.878906-11.894531 0-13.230469-10.769531-24-24-24h-80c-4.40625 0-8-3.585938-8-8s3.59375-8 8-8h24c13.230469 0 24-10.769531 24-24s-10.769531-24-24-24h-48c-4.40625 0-8-3.585938-8-8s3.59375-8 8-8h64c13.230469 0 24-10.769531 24-24s-10.769531-24-24-24h-107.816406l11-51.328125c.542968-2.535156.816406-5.144531.816406-7.734375 0-20.371094-16.566406-36.9375-36.9375-36.9375h-246.125c-20.371094 0-36.9375 16.566406-36.9375 36.9375 0 2.589844.273438 5.191406.816406 7.742188l18.457032 86.128906c3.628906 16.910156 18.816406 29.191406 36.117187 29.191406h8.609375v16h-25.351562c-21.3125 0-38.648438 17.335938-38.648438 38.648438 0 1.136718.046875 2.253906.152344 3.398437l21.414062 242.707031c1.769532 20.085938 18.320313 35.246094 38.496094 35.246094h199.867188c20.175781 0 36.726562-15.160156 38.496093-35.246094l21.414063-242.714844c.113281-1.136718.160156-2.253906.160156-3.390624 0-21.3125-17.335938-38.648438-38.648438-38.648438h-25.351562v-16h8.609375c17.300781 0 32.488281-12.28125 36.117187-29.191406l4.035157-18.808594h111.238281c4.40625 0 8 3.585938 8 8s-3.59375 8-8 8h-64c-13.230469 0-24 10.769531-24 24s10.769531 24 24 24h48c4.40625 0 8 3.585938 8 8s-3.59375 8-8 8h-24c-13.230469 0-24 10.769531-24 24s10.769531 24 24 24h80c4.40625 0 8 3.585938 8 8 0 11.800781 5.847656 18.136719 10.128906 22.761719 3.664063 3.964843 5.871094 6.359375 5.871094 11.886719 0 5.527343-2.207031 7.917968-5.871094 11.886718-4.28125 4.632813-10.128906 10.96875-10.128906 22.753906 0 11.78125 5.847656 18.125 10.128906 22.75 3.664063 3.96875 5.871094 6.359376 5.871094 11.890626 0 5.535156-2.207031 7.933593-5.878906 11.902343-4.273438 4.640625-10.121094 10.976563-10.121094 22.769531 0 11.804688 5.847656 18.140626 10.121094 22.773438 3.664062 3.976562 5.878906 6.386719 5.878906 11.929688 0 5.542968-2.214844 7.941406-5.878906 11.917968-4.273438 4.625-10.121094 10.96875-10.121094 22.777344h16c0-5.550781 2.214844-7.953125 5.878906-11.929688 4.273438-4.621093 10.121094-10.964843 10.121094-22.765624 0-11.808594-5.847656-18.144532-10.121094-22.777344-3.664062-3.976563-5.878906-6.375-5.878906-11.925782 0-5.539062 2.207031-7.9375 5.878906-11.90625 4.273438-4.632812 10.121094-10.96875 10.121094-22.765624 0-11.792969-5.847656-18.128907-10.128906-22.753907-3.664063-3.96875-5.871094-6.351562-5.871094-11.886719 0-5.535156 2.207031-7.921874 5.871094-11.890624 4.28125-4.621094 10.128906-10.957032 10.128906-22.75zm-284.945312-266.648438-5.789063 11.574219c-1.363281 2.730469-4.105469 4.425781-7.152344 4.425781h-76.226562c-3.046875 0-5.789063-1.695312-7.152344-4.425781l-5.789063-11.574219zm-176.132813 111.449219-18.457031-86.121094c-.304688-1.441406-.464844-2.914063-.464844-4.390625 0-11.546875 9.390625-20.9375 20.9375-20.9375h54.117188l9.371093 18.734375c4.085938 8.175781 12.308594 13.265625 21.460938 13.265625h76.226562c9.152344 0 17.367188-5.089844 21.460938-13.265625l9.371093-18.734375h54.117188c11.546875 0 20.9375 9.390625 20.9375 20.9375 0 1.476562-.160156 2.949219-.464844 4.382812l-11.71875 54.679688h-91.816406c-13.230469 0-24 10.769531-24 24v24h-120.609375c-9.804687 0-18.414063-6.960938-20.46875-16.550781zm157.078125 48.550781v-16h16v16zm-16 0h-64v-16h64zm-96-16h16v16h-16zm179.9375 320h-199.875c-10.199219 0-18.78125-6.625-21.628906-16h243.125c-2.839844 9.375-11.421875 16-21.621094 16zm23.558594-32h-246.992188l-18.359375-208h66.671875c11.503906 10.34375 26.222656 16 41.816406 16h66.742188c15.585938 0 30.304688-5.65625 41.816406-16h66.671875zm20.503906-233.351562c0 .664062-.023438 1.335937-.089844 1.992187l-.644531 7.359375h-74.578125l-2.34375 2.34375c-8.808594 8.808594-20.519531 13.65625-32.976562 13.65625h-66.742188c-12.457031 0-24.167969-4.847656-32.976562-13.65625l-2.335938-2.34375h-74.578125l-.644531-7.351562c-.066406-.664063-.089844-1.335938-.089844-2 0-12.488282 10.160156-22.648438 22.648438-22.648438h137.351562v16h16v-16h89.351562c12.488282 0 22.648438 10.160156 22.648438 22.648438zm-64-38.648438h-16v-16h16zm45.078125-48.550781c-2.054687 9.589843-10.664063 16.550781-20.46875 16.550781h-72.609375v-24c0-4.414062 3.59375-8 8-8h88.390625zm0 0" fill="url(#a)"/></svg>