<svg height="496pt" viewBox="0 0 496 496" width="496pt" xmlns="http://www.w3.org/2000/svg" xmlns:xlink="http://www.w3.org/1999/xlink"><linearGradient id="a" gradientUnits="userSpaceOnUse" x1="248" x2="248" y1="496" y2="0"><stop offset="0" stop-color="#9f2fff"/><stop offset="1" stop-color="#0bb1d3"/></linearGradient><path d="m144 32h16v16h-16zm64 16h16v-16h-16zm80 272v16h-208v-16c0-46.59375 30.800781-86.128906 73.105469-99.320312-10.441407-8.808594-17.105469-21.976563-17.105469-36.679688v-24c0-26.472656 21.527344-48 48-48s48 21.527344 48 48v24c0 14.703125-6.664062 27.871094-17.105469 36.679688 42.304688 13.191406 73.105469 52.726562 73.105469 99.320312zm-104-104c17.648438 0 32-14.351562 32-32v-24c0-17.648438-14.351562-32-32-32s-32 14.351562-32 32v24c0 17.648438 14.351562 32 32 32zm88 104c0-48.519531-39.480469-88-88-88s-88 39.480469-88 88zm-192 48h208v-16h-208zm192 64h16v-16h-16zm-192 0h176v-16h-176zm96-48h-96v16h96zm16 16h96v-16h-96zm191.273438-62.511719 8.390624 13.625c44.617188-27.464843 72.335938-77.074219 72.335938-129.464843v-5.648438h-16v5.648438c0 46.878906-24.808594 91.261718-64.726562 115.839843zm80.726562-153.488281h-16v16h16zm-56 0v24h24v48h-24v24h-48v-24h-24v-48h24v-24zm-16 40v-24h-16v24h-24v16h24v24h16v-24h24v-16zm-7.878906-120.753906 111.878906 51.632812v66.769532c0 63.414062-33.550781 123.464843-87.558594 156.703124l-24.441406 15.039063-16-9.847656v112.457031h-368v-464h96v-16c0-8.824219 7.175781-16 16-16h144c8.824219 0 16 7.175781 16 16v16h96v78.152344zm-112.121094-55.246094v16h64v59.863281l16-6.855469v-69.007812zm80 432v-106.648438c-5.59375-3.839843-10.910156-7.992187-16-12.398437v103.046875h-304v-400h64v-16h-80v432zm128-314.878906-96.121094-44.359375-63.878906 27.375v-68.136719h-64v-64h-144v48h128v16h-192v368h272v-102.703125c-30.289062-33.503906-48-77.65625-48-123.648437v-66.769532l28.648438-13.222656 6.703124 14.519531-19.351562 8.945313v56.535156c0 57.902344 30.632812 112.726562 79.953125 143.078125l16.046875 9.875 16.046875-9.875c49.320313-30.359375 79.953125-85.183594 79.953125-143.078125zm0 0" fill="url(#a)"/></svg>