<svg height="496pt" viewBox="0 0 496 496" width="496pt" xmlns="http://www.w3.org/2000/svg" xmlns:xlink="http://www.w3.org/1999/xlink"><linearGradient id="a" gradientUnits="userSpaceOnUse" x1="248" x2="248" y1="496" y2="0"><stop offset="0" stop-color="#9f2fff"/><stop offset="1" stop-color="#0bb1d3"/></linearGradient><path d="m256 80v32h16v16h-32v-48zm-16-31.496094v15.496094h16v-15.527344c33.3125 3.703125 59.824219 30.214844 63.527344 63.527344h-15.527344v16h15.496094c-1.542969 13.710938-6.96875 26.816406-15.753906 37.550781l12.386718 10.136719c12.816406-15.664062 19.871094-35.441406 19.871094-55.6875 0-48.519531-39.480469-88-88-88-20.246094 0-40.023438 7.054688-55.6875 19.871094l10.136719 12.386718c10.734375-8.785156 23.839843-14.210937 37.550781-15.753906zm63.6875 139.625-10.136719-12.386718c-10.734375 8.785156-23.847656 14.210937-37.550781 15.753906v-15.496094h-16v15.527344c-33.3125-3.703125-59.824219-30.214844-63.527344-63.527344h15.527344v-16h-15.496094c1.542969-13.710938 6.96875-26.816406 15.753906-37.550781l-12.386718-10.136719c-12.816406 15.664062-19.871094 35.441406-19.871094 55.6875 0 48.519531 39.480469 88 88 88 20.246094 0 40.023438-7.054688 55.6875-19.871094zm-127.6875 163.871094h-56v16h56zm0 32h-56v16h56zm-48-128h-56v16h56zm0 32h-56v16h56zm248 64h-56v16h56zm0 32h-56v16h56zm80-128h40v240h-496v-240h40v-32h120v32h36.800781l-45.410156-61.625c-15.300781-20.773438-23.390625-45.382812-23.390625-71.183594v-3.191406c0-66.167969 53.832031-120 120-120s120 53.832031 120 120v3.191406c0 25.800782-8.089844 50.410156-23.390625 71.183594l-45.410156 61.625h36.800781v-32h120zm-104-16v80h72v16h-16v16h16v16h-16v16h16v16h-16v16h32v-176zm-48 96v80h88v-80zm-139.726562-151.113281 83.726562 113.625 83.726562-113.632813c13.265626-18 20.273438-39.335937 20.273438-61.6875v-3.191406c0-57.34375-46.65625-104-104-104s-104 46.65625-104 104v3.191406c0 22.351563 7.007812 43.6875 20.273438 61.695313zm27.726562 151.113281h-88v80h88zm-136 80h32v-16h-16v-16h16v-16h-16v-16h16v-16h-16v-16h72v-80h-88zm400-144v160h-184v-16h16v-96h48v-48h-48.59375l-39.40625 53.488281-39.40625-53.488281h-48.59375v48h48v96h16v16h-184v-160h-24v208h464v-208zm-32-16h-56v16h56zm0 32h-56v16h56zm0 0" fill="url(#a)"/></svg>