<svg height="496pt" viewBox="0 0 496 496" width="496pt" xmlns="http://www.w3.org/2000/svg" xmlns:xlink="http://www.w3.org/1999/xlink"><linearGradient id="a" gradientUnits="userSpaceOnUse" x1="248" x2="248" y1="496" y2="0"><stop offset="0" stop-color="#9f2fff"/><stop offset="1" stop-color="#0bb1d3"/></linearGradient><path d="m96 32c10.320312 0 20.542969 3.40625 28.792969 9.59375l-9.601563 12.804688c-5.496094-4.125-12.3125-6.398438-19.191406-6.398438-17.648438 0-32 14.351562-32 32v12.527344c0 5.664062 1.503906 11.242187 4.351562 16.128906 20.609376 35.320312 35.304688 73.582031 43.664063 113.710938l-15.664063 3.265624c-8.007812-38.441406-22.078124-75.082031-41.824218-108.914062-4.269532-7.335938-6.527344-15.695312-6.527344-24.191406v-12.527344c0-26.472656 21.527344-48 48-48zm259.113281 97.671875-21.34375 9.855469c1.335938 3.945312 2.230469 8.089844 2.230469 12.472656s-.894531 8.527344-2.238281 12.472656l21.34375 9.847656c36.390625 16.800782 76.816406 25.679688 116.894531 25.679688 13.230469 0 24 10.769531 24 24s-10.769531 24-24 24h-38.65625c-17.03125 0-33.863281-2.726562-50.015625-8.121094-28.871094-9.621094-53.960937-27.277344-73.054687-51.085937-4.449219 1.6875-9.226563 2.710937-14.273438 2.710937-.0625 0-.128906-.015625-.191406-.015625-5.152344 5.246094-11.160156 9.816407-17.9375 13.480469-6.535156 21.886719-10.773438 44.328125-12.679688 67.023438h38.808594c13.230469 0 24 10.769531 24 24 0 13.230468-10.769531 24-24 24-4.40625 0-8 3.59375-8 8s3.59375 8 8 8h32c13.230469 0 24 10.769531 24 24 0 13.230468-10.769531 24-24 24h-16c-4.40625 0-8 3.59375-8 8s3.59375 8 8 8h32c13.230469 0 24 10.769531 24 24 0 13.230468-10.769531 24-24 24h-96v-16h96c4.40625 0 8-3.59375 8-8s-3.59375-8-8-8h-32c-13.230469 0-24-10.769532-24-24 0-13.230469 10.769531-24 24-24h16c4.40625 0 8-3.59375 8-8s-3.59375-8-8-8h-32c-13.230469 0-24-10.769532-24-24 0-13.230469 10.769531-24 24-24 4.40625 0 8-3.59375 8-8s-3.59375-8-8-8h-39.785156c-.136719 3.894531-.214844 7.785156-.214844 11.679687v58.664063c0 14.152343-11.511719 25.664062-25.664062 25.664062-12.0625 0-22.632813-8.566406-25.121094-20.375l-24.09375-114.488281c-2.097656-9.929688-10.976563-17.136719-21.121094-17.136719s-19.023438 7.207031-21.121094 17.136719l-2.878906 13.6875v161.175781c0 4.40625 3.59375 8 8 8s8-3.59375 8-8v-32c0-13.230469 10.769531-24 24-24s24 10.769531 24 24v104h-152c-13.230469 0-24-10.769531-24-24s10.769531-24 24-24h16c4.40625 0 8-3.59375 8-8s-3.59375-8-8-8h-32c-13.230469 0-24-10.769531-24-24s10.769531-24 24-24c4.40625 0 8-3.59375 8-8s-3.59375-8-8-8h-16c-13.230469 0-24-10.769531-24-24s10.769531-24 24-24h48v-20.328125c0-58.558594-15.601562-116.246094-45.105469-166.832031-7.125-12.214844-10.894531-26.152344-10.894531-40.304688v-12.535156c0-44.113281 35.886719-80 80-80 17.191406 0 34.238281 5.679688 48 16 13.753906 10.328125 34.246094 10.328125 48 0 13.761719-10.320312 30.808594-16 48-16 44.113281 0 80 35.886719 80 80v12.535156c0 4.328125-.449219 8.585938-1.128906 12.792969 17.808594-18.816406 39.738281-32.96875 64.457031-41.207031 16.160156-5.394532 32.984375-8.121094 50.015625-8.121094h38.65625c13.230469 0 24 10.769531 24 24s-10.769531 24-24 24c-40.078125 0-80.503906 8.878906-116.886719 25.671875zm-59.113281 45.839844c13.230469 0 24-10.542969 24-23.511719s-10.769531-23.511719-24-23.511719-24 10.542969-24 23.511719 10.769531 23.511719 24 23.511719zm-168 248.488281v-85.167969l-5.214844 24.792969c-2.488281 11.808594-13.058594 20.375-25.121094 20.375-14.152343 0-25.664062-11.511719-25.664062-25.664062v-22.335938h-48c-4.40625 0-8 3.59375-8 8s3.59375 8 8 8h16c13.230469 0 24 10.769531 24 24s-10.769531 24-24 24c-4.40625 0-8 3.59375-8 8s3.59375 8 8 8h32c13.230469 0 24 10.769531 24 24s-10.769531 24-24 24h-16c-4.40625 0-8 3.59375-8 8s3.59375 8 8 8h136v-88c0-4.40625-3.59375-8-8-8s-8 3.59375-8 8v32c0 13.230469-10.769531 24-24 24s-24-10.769531-24-24zm131.191406-211.609375c-8.328125 2.304687-17.152344 3.609375-26.214844 3.609375-30.769531 0-58.289062-13.726562-71.800781-35.824219l-7.449219-12.175781h39.625c21.402344 0 43.023438-4.527344 62.953126-13.039062-.082032-.992188-.304688-1.945313-.304688-2.960938 0-21.785156 17.945312-39.511719 40-39.511719 1.585938 0 3.097656.289063 4.632812.464844 2.214844-6.570313 3.367188-13.410156 3.367188-20.417969v-12.535156c0-35.289062-28.710938-64-64-64-13.753906 0-27.390625 4.542969-38.398438 12.800781-19.257812 14.445313-47.945312 14.445313-67.203124 0-11.007813-8.257812-24.644532-12.800781-38.398438-12.800781-35.289062 0-64 28.710938-64 64v12.535156c0 11.320313 3.015625 22.472656 8.71875 32.25 30.9375 53.023438 47.28125 113.503906 47.28125 174.886719v58.664063c0 5.328124 4.335938 9.664062 9.664062 9.664062 4.542969 0 8.519532-3.230469 9.464844-7.671875l24.101563-114.488281c3.632812-17.296875 19.105469-29.839844 36.769531-29.839844s33.136719 12.542969 36.777344 29.832031l24.101562 114.488281c.9375 4.449219 4.914063 7.679688 9.457032 7.679688 5.328124 0 9.664062-4.335938 9.664062-9.664062v-58.664063c0-29.503906 3.792969-58.792969 11.191406-87.28125zm17.929688-25.773437c-6.929688-3.707032-12.570313-9.3125-16.28125-16.175782-21.414063 8.871094-44.566406 13.558594-67.488282 13.558594h-7.863281c11.976563 10 29.183594 16 47.496094 16 16.671875 0 32.34375-4.886719 44.136719-13.382812zm48.480468-8.289063c-.578124.632813-1.089843 1.304687-1.707031 1.894531 17.027344 20.671875 39.136719 36.023438 64.488281 44.480469 14.527344 4.839844 29.648438 7.296875 44.960938 7.296875h38.65625c4.40625 0 8-3.59375 8-8s-3.59375-8-8-8c-42.375 0-85.121094-9.382812-123.59375-27.152344zm22.804688-63.183594c38.472656-17.761719 81.21875-27.144531 123.59375-27.144531 4.40625 0 8-3.59375 8-8s-3.59375-8-8-8h-38.65625c-15.3125 0-30.441406 2.457031-44.960938 7.296875-25.359374 8.445313-47.460937 23.808594-64.488281 44.480469.617188.589844 1.128907 1.261718 1.707031 1.894531zm-124.40625 316.855469v16h16v-16zm0 0" fill="url(#a)"/></svg>