<svg height="496pt" viewBox="0 -56 496 496" width="496pt" xmlns="http://www.w3.org/2000/svg" xmlns:xlink="http://www.w3.org/1999/xlink"><linearGradient id="a" gradientUnits="userSpaceOnUse" x1="248" x2="248" y1="384" y2="0"><stop offset="0" stop-color="#9f2fff"/><stop offset="1" stop-color="#0bb1d3"/></linearGradient><path d="m431.039062 143.375c-8.453124-4.824219-18.0625-7.375-27.792968-7.375h-9.15625c3.167968-10.503906 9.820312-19.664062 19.140625-25.871094 16.761719-11.175781 26.769531-29.882812 26.769531-50.015625 0-33.144531-26.96875-60.113281-60.113281-60.113281h-179.886719c-13.230469 0-24 10.769531-24 24v8h-32v-8c0-8.824219-7.175781-16-16-16h-16c-8.824219 0-16 7.175781-16 16v8h-96v48h96v8c0 8.824219 7.175781 16 16 16h16c8.824219 0 16-7.175781 16-16v-8h32v8c0 13.230469 10.769531 24 24 24h24c18.910156 0 37.664062 6.246094 52.800781 17.601562 2.75 2.0625 5.238281 4.398438 7.710938 6.75-11.566407 1.703126-20.511719 11.609376-20.511719 23.648438 0 2.816406.574219 5.488281 1.472656 8h-45.183594l-.96875-5.550781c-2.65625-15.320313-15.878906-26.449219-31.441406-26.449219-3.4375 0-6.832031.550781-10.117187 1.648438l-.769531.253906c-13.265626 4.425781-21.792969 16.570312-21.824219 30.097656h-3.167969c-13.230469 0-24 10.769531-24 24 0 6.167969 2.40625 11.742188 6.238281 16-3.839843 4.257812-6.238281 9.832031-6.238281 16s2.40625 11.742188 6.238281 16c-3.839843 4.257812-6.238281 9.832031-6.238281 16s2.40625 11.742188 6.238281 16c-3.839843 4.257812-6.238281 9.832031-6.238281 16 0 13.230469 10.769531 24 24 24h27.703125l.96875 5.542969c2.664063 15.328125 15.886719 26.457031 31.449219 26.457031 3.4375 0 6.832031-.550781 10.117187-1.648438l.769531-.253906c13.257813-4.425781 21.792969-16.578125 21.816407-30.097656h67.039062c-.328125 3.359375-1.75 6.574219-4.144531 8.96875l-11.070312 11.070312c-5.578126 5.578126-8.648438 12.992188-8.648438 21.273438 0 8.289062 3.238281 16.0625 9.144531 21.871094 5.765625 5.695312 13.375 8.816406 21.472657 8.816406h.429687c14-.191406 28.007813-.136719 42.03125 0h.296875c8.136719 0 15.777344-3.144531 21.554688-8.863281 5.847656-5.800781 9.070312-13.519531 9.070312-21.761719v-41.375h17.472656c11.09375 0 21.832032-3.246094 31.0625-9.40625l33.890625-22.59375h21.574219v-112h-21.871094zm-415.039062-79.375v-16h80v16zm406.273438-16h-39.847657c-7.839843 0-15.449219-2.304688-21.984375-6.65625-9.183594-6.113281-19.847656-9.34375-30.867187-9.34375h-105.574219v-16h155.886719c20.121093 0 37.105469 13.550781 42.386719 32zm-310.273438 40v-64h16l.007812 64zm32-24v-16h32v16zm48 24v-64c0-4.40625 3.585938-8 8-8h8v80h-8c-4.414062 0-8-3.59375-8-8zm32 8v-48h105.574219c7.839843 0 15.449219 2.304688 21.984375 6.65625 9.183594 6.113281 19.847656 9.34375 30.867187 9.34375h41.335938c-1.167969 13.265625-8.195313 25.34375-19.402344 32.816406-13.800781 9.191406-23.320313 23.214844-26.839844 39.183594h-71.640625c-5.632812-7.207031-12.136718-13.6875-19.480468-19.199219-17.886719-13.417969-40.046876-20.800781-62.398438-20.800781zm88 200h-68.6875l68.6875-68.6875zm-1.648438-112c.984376 5.289062 1.648438 10.625 1.648438 16v4.6875l-72.679688 72.679688-6.128906-35.246094 58.121094-58.121094zm-41.664062 0-38.847656 38.855469-6.761719-38.855469zm-86.597656-30.929688.765625-.253906c1.625-.542968 3.3125-.816406 5.023437-.816406 7.761719 0 14.351563 5.542969 15.679688 13.191406l3.664062 21.054688c-2.589844-10.445313-11.984375-18.246094-23.222656-18.246094h-12.832031c.046875-6.710938 4.3125-12.71875 10.921875-14.929688zm-38.089844 102.929688c0-4.414062 3.585938-8 8-8h32c4.414062 0 8 3.585938 8 8s-3.585938 8-8 8h-32c-4.414062 0-8-3.585938-8-8zm0-32c0-4.414062 3.585938-8 8-8h32c4.414062 0 8 3.585938 8 8s-3.585938 8-8 8h-32c-4.414062 0-8-3.585938-8-8zm8-40h32c4.414062 0 8 3.59375 8 8s-3.585938 8-8 8h-32c-4.414062 0-8-3.59375-8-8s3.585938-8 8-8zm-8 104c0-4.414062 3.585938-8 8-8h32c4.414062 0 8 3.585938 8 8s-3.585938 8-8 8h-32c-4.414062 0-8-3.585938-8-8zm73.910156 38.929688-.765625.253906c-1.625.542968-3.3125.816406-5.023437.816406-7.761719 0-14.351563-5.542969-15.679688-13.183594l-1.015625-5.839844c7.445313-4.082031 12.574219-11.898437 12.574219-20.976562 0-6.167969-2.40625-11.742188-6.238281-16 3.839843-4.257812 6.238281-9.832031 6.238281-16s-2.40625-11.742188-6.238281-16c3.839843-4.257812 6.238281-9.832031 6.238281-16s-2.40625-11.742188-6.238281-16c3.839843-4.257812 6.238281-9.832031 6.238281-16 0-1.0625-.175781-2.070312-.3125-3.105469l20.90625 120.183594c1.359375 7.824219-3.121094 15.328125-10.683594 17.851563zm153.761719 36.839843c-2.800781 2.765625-6.183594 4.277344-10.441406 4.230469-14.160157-.128906-28.261719-.183594-42.40625 0-3.746094.191406-7.648438-1.441406-10.457031-4.199219-2.816407-2.792969-4.367188-6.511719-4.367188-10.890625 0-3.605468 1.40625-7.007812 3.960938-9.558594l11.070312-11.070312c5.785156-5.785156 8.96875-13.472656 8.96875-21.65625v-110.625c0-5.359375-.558594-10.695312-1.382812-16h21.503906c7.703125 9.320312 17.269531 16.785156 27.878906 22.207031v147.167969c0 3.9375-1.535156 7.625-4.328125 10.394531zm108.328125-99.769531h-10.425781l-37.917969 25.28125c-6.59375 4.398438-14.265625 6.71875-22.183594 6.71875h-17.472656v-83.511719c7.753906 2.222657 15.800781 3.511719 24 3.511719h8v-16h-8c-22.535156 0-44.070312-10.769531-57.601562-28.800781l-2.398438-3.199219h-67.992188c-4.414062 0-8.007812-3.59375-8.007812-8s3.585938-8 7.992188-8h115.253906c6.945312 0 13.816406 1.824219 19.851562 5.273438l46.773438 26.726562h10.128906zm0 0" fill="url(#a)"/></svg>