<svg height="496pt" viewBox="0 -24 496 496" width="496pt" xmlns="http://www.w3.org/2000/svg" xmlns:xlink="http://www.w3.org/1999/xlink"><linearGradient id="a" gradientUnits="userSpaceOnUse" x1="248" x2="248" y1="448" y2="0"><stop offset="0" stop-color="#9f2fff"/><stop offset="1" stop-color="#0bb1d3"/></linearGradient><path d="m384.886719 167.558594c19.777343-17.789063 31.113281-43.246094 31.113281-69.847656v-3.742188c0-51.816406-42.152344-93.96875-93.96875-93.96875-18.617188 0-36.640625 5.457031-52.128906 15.785156l-21.902344 14.597656-21.902344-14.605468c-15.488281-10.320313-33.511718-15.777344-52.128906-15.777344-51.816406 0-93.96875 42.152344-93.96875 93.96875v3.742188c0 26.601562 11.335938 52.058593 31.113281 69.847656l62.703125 56.441406h-173.816406v224h496v-224h-173.816406zm-288.886719-69.847656v-3.742188c0-42.992188 34.976562-77.96875 77.96875-77.96875 15.445312 0 30.398438 4.527344 43.246094 13.097656l30.785156 20.519532 30.785156-20.519532c12.847656-8.570312 27.800782-13.097656 43.246094-13.097656 42.992188 0 77.96875 34.976562 77.96875 77.96875v3.742188c0 22.074218-9.40625 43.191406-25.816406 57.960937l-126.183594 113.558594-126.183594-113.566407c-16.410156-14.761718-25.816406-35.878906-25.816406-57.953124zm152 193.058593 17.953125-16.160156c26.902344 7.878906 46.046875 33.046875 46.046875 61.390625 0 35.289062-28.710938 64-64 64s-64-28.710938-64-64c0-28.34375 19.144531-53.511719 46.046875-61.390625zm-192.71875-50.769531c-3.394531 20.054688-19.226562 35.886719-39.28125 39.28125v-39.28125zm-39.28125 152.71875c20.054688 3.386719 35.886719 19.226562 39.28125 39.28125h-39.28125zm424.71875 39.28125c3.386719-20.054688 19.226562-35.886719 39.28125-39.28125v39.28125zm39.28125-152.71875c-20.054688-3.386719-35.886719-19.226562-39.28125-39.28125h39.28125zm-55.449219-39.28125c3.625 28.894531 26.554688 51.816406 55.449219 55.449219v81.109375c-28.894531 3.625-51.816406 26.554687-55.449219 55.449218h-353.101562c-3.632813-28.902343-26.554688-51.824218-55.449219-55.457031v-81.101562c28.894531-3.632813 51.816406-26.554688 55.449219-55.449219h120.152343l24.964844 22.472656c-28.824218 12.421875-48.566406 41.34375-48.566406 73.527344 0 44.113281 35.886719 80 80 80s80-35.886719 80-80c0-32.183594-19.742188-61.105469-48.566406-73.527344l24.964844-22.472656zm-104.550781-192v-16c35.289062 0 64 28.710938 64 64h-16c0-26.472656-21.527344-48-48-48zm-80 160v-17.136719c-13.761719-3.574219-24-16-24-30.863281h16c0 8.824219 7.175781 16 16 16s16-7.175781 16-16-7.175781-16-16-16c-17.648438 0-32-14.351562-32-32 0-14.863281 10.238281-27.289062 24-30.863281v-17.136719h16v17.136719c13.761719 3.574219 24 16 24 30.863281h-16c0-8.824219-7.175781-16-16-16s-16 7.175781-16 16 7.175781 16 16 16c17.648438 0 32 14.351562 32 32 0 14.863281-10.238281 27.289062-24 30.863281v17.136719zm16 136h-16v-16h16zm32 0h-16v-16h16zm-64 0h-16v-16h16zm0 0" fill="url(#a)"/></svg>