<svg height="496pt" viewBox="-32 0 496 496" width="496pt" xmlns="http://www.w3.org/2000/svg" xmlns:xlink="http://www.w3.org/1999/xlink"><linearGradient id="a" gradientUnits="userSpaceOnUse" x1="216" x2="216" y1="496" y2="0"><stop offset="0" stop-color="#9f2fff"/><stop offset="1" stop-color="#0bb1d3"/></linearGradient><path d="m287.953125 32 .015625 16c-6.855469.007812-13.664062 2.28125-19.175781 6.414062-15.152344 11.347657-33.898438 17.585938-52.792969 17.585938s-37.65625-6.257812-52.832031-17.609375c-5.480469-4.117187-12.289063-6.382813-19.183594-6.390625l.015625-16c10.335938.007812 20.550781 3.414062 28.769531 9.585938 12.40625 9.285156 27.765625 14.414062 43.230469 14.414062s30.808594-5.113281 43.199219-14.390625c8.25-6.183594 18.464843-9.601563 28.753906-9.609375zm56.582031-8.609375c15.128906 15.113281 23.464844 35.21875 23.464844 56.601563v6.3125c0 18.414062-6.425781 36.40625-18.078125 50.65625-12.554687 15.335937-23.1875 32.296874-31.617187 50.414062l-2.152344 4.625h-49.90625l8 32h-26.246094v32h-64v-32h-26.246094l8-32h-49.90625l-2.152344-4.625c-8.429687-18.117188-19.0625-35.078125-31.617187-50.414062-11.652344-14.25-18.078125-32.242188-18.078125-50.65625v-6.3125c0-21.375 8.328125-41.480469 23.449219-56.585938 15.109375-15.09375 35.191406-23.40625 56.542969-23.40625h.0625c17.160156.0078125 34.167968 5.6875 47.914062 15.984375 13.816406 10.34375 34.269531 10.328125 48.039062.015625 13.761719-10.304688 30.761719-15.984375 47.914063-16h.09375c21.34375 0 41.417969 8.304688 56.519531 23.390625zm-112.535156 200.609375h-32v16h32zm17.753906-32h-67.507812l-4 16h75.507812zm102.246094-112.007812c0-17.113282-6.664062-33.183594-18.769531-45.28125-12.085938-12.070313-28.140625-18.710938-45.214844-18.710938-.023437 0-.046875 0-.078125 0-13.722656.015625-27.328125 4.550781-38.3125 12.785156-19.328125 14.488282-47.960938 14.453125-67.234375.03125-11.015625-8.273437-24.621094-12.808594-38.351563-12.816406-.015624 0-.03125 0-.046874 0-17.089844 0-33.144532 6.648438-45.230469 18.726562-12.097657 12.089844-18.761719 28.160157-18.761719 45.265626v6.3125c0 14.734374 5.136719 29.128906 14.464844 40.511718 12.328125 15.0625 22.917968 31.582032 31.535156 49.175782h180c8.617188-17.59375 19.207031-34.121094 31.535156-49.167969 9.328125-11.390625 14.464844-25.785157 14.464844-40.519531zm79.160156 388.433593.839844 1.6875v25.886719h-432v-25.886719l.839844-1.6875c35.128906-70.25 104.984375-114.347656 183.160156-116.242187v-32.183594c-8.824219 0-16-7.175781-16-16v-16c0-8.824219 7.175781-16 16-16h64c8.824219 0 16 7.175781 16 16v16c0 8.824219-7.175781 16-16 16v32.183594c78.175781 1.894531 148.03125 45.992187 183.160156 116.242187zm-231.160156-100.425781h32v-16h-32zm32 16h-32v16h32zm-30.992188 32c1.671876 11.289062 5.480469 22.144531 11.390626 32h7.195312c5.910156-9.855469 9.71875-20.710938 11.390625-32zm-17.007812-112h64.007812l-.007812-16h-64zm16 16v16h32v-16zm216 153.902344c-32.664062-63.8125-96.542969-103.847656-168-105.726563v34.976563c0 20.457031-6 40.261718-17.34375 57.28125l-2.375 3.566406h-24.5625l-2.375-3.558594c-11.34375-17.015625-17.34375-36.832031-17.34375-57.28125v-34.976562c-71.457031 1.871094-135.335938 41.90625-168 105.726562v6.089844h400zm-48-273.902344v121.902344l-25.855469-31.023438-12.289062 10.25 46.144531 55.367188 46.144531-55.375-12.289062-10.25-25.855469 31.03125v-121.902344zm-320 0v121.902344l-25.855469-31.023438-12.289062 10.25 46.144531 55.367188 46.144531-55.375-12.289062-10.25-25.855469 31.03125v-121.902344zm0 0" fill="url(#a)"/></svg>