<svg height="496pt" viewBox="0 -64 496 496" width="496pt" xmlns="http://www.w3.org/2000/svg" xmlns:xlink="http://www.w3.org/1999/xlink"><linearGradient id="a" gradientUnits="userSpaceOnUse" x1="248" x2="248" y1="368" y2="0"><stop offset="0" stop-color="#9f2fff"/><stop offset="1" stop-color="#0bb1d3"/></linearGradient><path d="m134.792969 53.929688c-6.464844-3.882813-13.839844-5.929688-21.34375-5.929688v-16c10.40625 0 20.628906 2.832031 29.566406 8.199219l6.894531 4.128906c25.433594 15.273437 58.761719 15.265625 84.136719.023437l6.953125-4.167968c8.9375-5.351563 19.152344-8.183594 29.550781-8.183594l1.640625.023438-.390625 15.992187-1.25-.015625c-7.503906 0-14.878906 2.039062-21.328125 5.902344l-6.949218 4.167968c-15.167969 9.113282-32.554688 13.929688-50.273438 13.929688s-35.121094-4.824219-50.3125-13.945312zm361.207031 210.070312v64c0 13.230469-10.769531 24-24 24h-24v-32h-33.472656c-3.3125 9.289062-12.113282 16-22.527344 16h-9.886719l1.886719 8v24h-384l.238281-25.9375 22.914063-91.636719c4.769531-19.074219 18.953125-33.683593 36.839844-39.5625-8.023438-24.65625-17.296876-48.625-27.753907-71.269531-5.46875-11.839844-8.238281-24.449219-8.238281-37.480469v-12.671875c0-49.3125 40.128906-89.441406 89.441406-89.441406 16.207032 0 32.117188 4.40625 46.015625 12.742188l6.933594 4.167968c15.464844 9.273438 35.746094 9.273438 51.203125 0l6.933594-4.167968c13.914062-8.335938 29.824218-12.742188 46.03125-12.742188 49.3125 0 89.441406 40.128906 89.441406 89.441406v12.671875c0 13.03125-2.769531 25.640625-8.230469 37.480469-10.457031 22.644531-19.730469 46.613281-27.753906 71.269531 17.886719 5.871094 32.0625 20.488281 36.839844 39.5625l1.390625 5.574219h29.753906c10.414062 0 19.214844 6.710938 22.527344 16h33.472656v-32h24c13.230469 0 24 10.769531 24 24zm-420.0625-55.871094c.519531-.015625 1.015625-.128906 1.542969-.128906h229.046875c.527344 0 1.023437.113281 1.542968.128906 8.378907-26.039062 18.144532-51.34375 29.175782-75.242187 4.480468-9.71875 6.753906-20.070313 6.753906-30.773438v-12.671875c0-40.496094-32.945312-73.441406-73.441406-73.441406-13.3125 0-26.375 3.617188-37.78125 10.464844l-6.9375 4.167968c-20.433594 12.253907-47.238282 12.253907-67.671875 0l-6.9375-4.167968c-11.414063-6.847656-24.476563-10.464844-37.789063-10.464844-40.496094 0-73.441406 32.945312-73.441406 73.441406v12.671875c0 10.695313 2.273438 21.054688 6.761719 30.773438 11.03125 23.898437 20.789062 49.210937 29.175781 75.242187zm289.816406 127.871094h-181.753906c-10.96875 0-20.136719-7.441406-22.992188-17.503906l-33.007812-8.25v-6.246094h-64v-16h64v-6.246094l33.007812-8.25c2.855469-10.0625 12.023438-17.503906 22.992188-17.503906h161.753906l-.425781-1.703125c-4.464844-17.832031-20.417969-30.296875-38.808594-30.296875h-229.039062c-18.382813 0-34.34375 12.464844-38.808594 30.296875l-22.671875 90.6875v7.015625h352v-7.015625zm-205.753906-45.753906-16 4.011718v3.503907l16 4.007812zm240-10.246094c0-4.414062-3.59375-8-8-8h-8v16h-16v-16h-16v32h-16v-32h-16v16h-16v-16h-16v32h-16v-32h-16v16h-16v-16h-16v32h-16v-32h-24c-4.40625 0-8 3.585938-8 8v32c0 4.414062 3.59375 8 8 8h208c4.40625 0 8-3.585938 8-8zm48 24v-16h-32v16zm32-40c0-4.414062-3.59375-8-8-8h-8v80h8c4.40625 0 8-3.585938 8-8zm0 0" fill="url(#a)"/></svg>