<svg height="496pt" viewBox="-48 0 496 496" width="496pt" xmlns="http://www.w3.org/2000/svg" xmlns:xlink="http://www.w3.org/1999/xlink"><linearGradient id="a" gradientUnits="userSpaceOnUse" x1="200" x2="200" y1="496" y2="0"><stop offset="0" stop-color="#9f2fff"/><stop offset="1" stop-color="#0bb1d3"/></linearGradient><path d="m64 356.023438c0-12.046876-5.792969-18.566407-10.023438-23.328126-3.601562-4.054687-5.976562-6.734374-5.976562-12.695312v-140.6875c0-5.160156 2.007812-10.007812 5.65625-13.65625 1.742188-1.746094 3.253906-3.648438 4.574219-5.65625h37.769531c8.824219 0 16-7.175781 16-16v-112c0-8.824219-7.175781-16-16-16h-33.472656c-3.3125-9.289062-12.113282-16-22.527344-16h-16c-13.230469 0-24 10.769531-24 24v448c0 13.230469 10.769531 24 24 24s24-10.769531 24-24v-8c0-5.945312 2.375-8.625 5.976562-12.664062 4.230469-4.761719 10.023438-11.265626 10.023438-23.296876 0-12.039062-5.792969-18.550781-10.023438-23.3125-3.601562-4.054687-5.976562-6.726562-5.976562-12.6875 0-5.960937 2.382812-8.640624 5.976562-12.695312 4.230469-4.757812 10.023438-11.273438 10.023438-23.320312zm-.320312-212.023438c.105468-1.105469.320312-2.183594.320312-3.3125v-12.6875h32v16zm32.320312-48v16h-32v-16zm-32-16v-16h32v16zm32-32h-32v-16h32zm-53.976562 320.71875c-4.230469 4.761719-10.023438 11.273438-10.023438 23.320312 0 12.039063 5.792969 18.554688 10.023438 23.3125 3.601562 4.054688 5.976562 6.726563 5.976562 12.6875 0 5.945313-2.375 8.617188-5.976562 12.65625-4.222657 4.761719-10.023438 11.265626-10.023438 23.304688v8c0 4.414062-3.585938 8-8 8s-8-3.585938-8-8v-448c0-4.414062 3.585938-8 8-8h16c4.414062 0 8 3.585938 8 8v116.6875c0 5.160156-2.007812 10.007812-5.65625 13.65625-6.671875 6.671875-10.34375 15.535156-10.34375 24.96875v140.6875c0 12.046875 5.792969 18.558594 10.015625 23.320312 3.601563 4.054688 5.984375 6.734376 5.984375 12.703126 0 5.960937-2.382812 8.640624-5.976562 12.695312zm140.152343 29c1.761719 10.59375 10.832031 18.28125 22.070313 18.28125 10.746094 0 19.816406-7.6875 21.570312-18.28125l3.441406-20.613281c.886719-5.273438 5.398438-9.105469 10.742188-9.105469s9.855469 3.832031 10.742188 9.097656l3.441406 20.621094c1.753906 10.59375 10.824218 18.28125 22.0625 18.28125 10.746094 0 19.816406-7.6875 21.570312-18.273438 3.945313-23.628906 10.449219-46.847656 19.40625-69.253906 1.847656-4.59375 2.777344-9.425781 2.777344-14.382812v-3.386719c0-10.359375-4.039062-20.09375-11.375-27.40625-7.3125-7.289063-17.007812-11.296875-27.320312-11.296875-.03125 0-.074219 0-.113282 0-7.617187.023438-15.007812 2.265625-21.367187 6.496094l-9.601563 6.40625c-6.09375 4.050781-14.367187 4.050781-20.445312 0l-9.609375-6.40625c-6.359375-4.238282-13.761719-6.496094-21.398438-6.496094-.027343 0-.050781 0-.074219 0-10.328124 0-20.03125 4.015625-27.34375 11.3125-7.328124 7.3125-11.359374 17.039062-11.359374 27.390625v3.386719c0 4.957031.929687 9.796875 2.855468 14.621094 8.886719 22.160156 15.382813 45.386718 19.328125 69.007812zm-6.175781-87.015625c0-6.070313 2.367188-11.78125 6.664062-16.070313 4.289063-4.28125 9.984376-6.632812 16.039063-6.632812h.050781c4.476563.007812 8.8125 1.320312 12.542969 3.816406l9.613281 6.40625c11.363282 7.5625 26.816406 7.5625 38.167969 0l9.609375-6.40625c3.738281-2.488281 8.074219-3.808594 12.542969-3.816406h.066406c6.046875 0 11.734375 2.351562 16.023437 6.625 4.304688 4.296875 6.671876 10 6.671876 16.078125v3.386719c0 2.910156-.542969 5.75-1.71875 8.671875-9.296876 23.230469-16.113282 47.566406-20.242188 72.335937-.472656 2.839844-2.894531 4.902344-6.277344 4.902344-2.882812 0-5.3125-2.0625-5.792968-4.902344l-3.441407-20.632812c-2.175781-13.015625-13.328125-22.464844-26.519531-22.464844s-24.34375 9.449219-26.519531 22.472656l-3.441407 20.625c-.480468 2.839844-2.902343 4.902344-6.285156 4.902344-2.882812 0-5.3125-2.0625-5.792968-4.910156-4.136719-24.761719-10.945313-49.097656-20.34375-72.570313-1.074219-2.6875-1.617188-5.519531-1.617188-8.429687zm173.839844-131.023437c-7.960938-34.855469-35.671875-60.519532-69.839844-66.398438v-17.28125h16v-16l-17.585938-80h-76.828124l-17.402344 78.265625-.183594 17.734375h16v17.28125c-34.175781 5.878906-61.878906 31.542969-69.839844 66.398438l-47.96875 209.839843c-1.457031 6.351563-2.191406 12.878907-2.191406 19.402344 0 48.015625 39.0625 87.078125 87.078125 87.078125h145.84375c48.015625 0 87.078125-39.0625 87.078125-87.078125 0-6.523437-.734375-13.050781-2.183594-19.402344zm-135.425782-163.679688h51.171876l14.214843 64h-79.609375zm49.585938 80v16h-48v-16zm-48.960938 32h49.921876c30.816406 0 57.4375 19.40625 67.183593 48h-184.296875c9.753906-28.59375 36.375-48 67.191406-48zm-117.253906 265.089844 45.96875-201.089844h192.503906l45.964844 201.089844c1.175782 5.175781 1.777344 10.503906 1.777344 15.832031 0 8.085937-1.425781 15.832031-3.921875 23.078125h-280.15625c-2.496094-7.246094-3.921875-14.992188-3.921875-23.078125 0-5.328125.601562-10.65625 1.785156-15.832031zm215.136719 86.910156h-145.84375c-24.757813 0-46.582031-12.742188-59.308594-32h264.460938c-12.726563 19.257812-34.542969 32-59.308594 32zm7.078125-256h-160v-16h160zm0 32h-160v-16h160zm0 0" fill="url(#a)"/></svg>