<svg height="496pt" viewBox="0 0 496 496" width="496pt" xmlns="http://www.w3.org/2000/svg" xmlns:xlink="http://www.w3.org/1999/xlink"><linearGradient id="a" gradientUnits="userSpaceOnUse" x1="248" x2="248" y1="496" y2="0"><stop offset="0" stop-color="#9f2fff"/><stop offset="1" stop-color="#0bb1d3"/></linearGradient><path d="m230.0625 232c-11.207031 0-21.742188 4.359375-29.664062 12.289062l-2.742188 2.742188c-5.703125 5.695312-13.59375 8.96875-21.65625 8.96875s-15.953125-3.273438-21.65625-8.976562l-2.742188-2.734376c-7.921874-7.929687-18.449218-12.289062-29.664062-12.289062-23.121094 0-41.9375 18.816406-41.9375 41.945312v3.78125c0 8.3125 2.441406 16.351563 7.046875 23.265626 16.328125 24.488281 24.953125 52.984374 24.953125 82.421874v15.699219c0 13.71875 11.167969 24.886719 24.878906 24.886719 12.695313 0 23.335938-9.511719 24.746094-22.136719l4.558594-41.070312c.558594-5.015625 4.777344-8.792969 9.816406-8.792969s9.257812 3.777344 9.816406 8.785156l4.558594 41.078125c1.410156 12.625 12.050781 22.136719 24.746094 22.136719 13.71875 0 24.878906-11.167969 24.878906-24.886719v-15.699219c0-29.4375 8.625-57.933593 24.953125-82.421874 4.605469-6.914063 7.046875-14.960938 7.046875-23.273438v-3.78125c0-23.121094-18.816406-41.9375-41.9375-41.9375zm25.9375 45.71875c0 5.144531-1.503906 10.113281-4.359375 14.394531-18.089844 27.125-27.640625 58.695313-27.640625 91.300781v15.699219c0 4.894531-3.984375 8.886719-8.878906 8.886719-4.535156 0-8.335938-3.398438-8.832032-7.902344l-4.5625-41.082031c-1.46875-13.121094-12.527343-23.015625-25.726562-23.015625s-24.257812 9.894531-25.71875 23.015625l-4.5625 41.074219c-.503906 4.511718-4.292969 7.910156-8.839844 7.910156-4.894531 0-8.878906-3.992188-8.878906-8.886719v-15.699219c0-32.605468-9.550781-64.175781-27.640625-91.300781-2.855469-4.28125-4.359375-9.25-4.359375-14.394531v-3.78125c0-14.296875 11.632812-25.9375 25.9375-25.9375 6.933594 0 13.445312 2.695312 18.34375 7.601562l2.75 2.742188c8.679688 8.679688 20.695312 13.65625 32.96875 13.65625s24.289062-4.976562 32.96875-13.65625l2.757812-2.75c4.890626-4.898438 11.402344-7.59375 18.335938-7.59375 14.304688 0 25.9375 11.640625 25.9375 25.945312zm120-5.71875c-2.855469 0-5.710938.097656-8.519531.28125l1.046875 15.964844c2.464844-.15625 4.960937-.246094 7.472656-.246094 48.351562 0 88.984375 30.664062 100.574219 72h-201.183594c9.050781-31.871094 35.617187-58.273438 70.746094-67.984375l5.863281-1.617187v-69.992188l-8.910156-7.917969c-38.097656-33.863281-60.714844-81.785156-62.875-132.488281h7.785156c13.230469 0 24-10.769531 24-24v-32c0-13.230469-10.769531-24-24-24h-224c-13.230469 0-24 10.769531-24 24v32c0 13.230469 10.769531 24 24 24h7.785156c-2.167968 50.703125-24.777344 98.625-62.875 132.488281l-8.910156 7.917969v203.59375c0 39.695312 32.296875 72 72 72h208c14.734375 0 28.703125-4.390625 40.71875-12.695312 16.5625 8.0625 35.34375 12.695312 55.28125 12.695312 66.167969 0 120-50.238281 120-112s-53.832031-112-120-112zm103.558594 104c.242187 2.648438.441406 5.296875.441406 8s-.199219 5.351562-.441406 8h-207.117188c-.242187-2.648438-.441406-5.296875-.441406-8 0-2.6875.128906-5.351562.375-8zm-223.558594 8c0 10.929688 1.761719 21.472656 4.902344 31.464844-23.496094 20.941406-53.40625 32.535156-84.902344 32.535156-70.574219 0-128-57.425781-128-128s57.425781-128 128-128c61.222656 0 114.28125 44.566406 125.511719 104.367188-27.976563 20.871093-45.511719 52.96875-45.511719 87.632812zm-200-328v-8h16v-16h-16v-8c0-4.40625 3.585938-8 8-8h224c4.414062 0 8 3.59375 8 8v8h-208v16h208v8c0 4.40625-3.585938 8-8 8h-224c-4.414062 0-8-3.59375-8-8zm208.214844 24c.875 22.078125 5.296875 43.671875 12.976562 64h-202.382812c7.679687-20.328125 12.101562-41.921875 12.976562-64zm15.785156 400h-208c-30.871094 0-56-25.121094-56-56v-196.40625l3.535156-3.152344c20.503906-18.21875 36.816406-40.210937 48.410156-64.441406h216.109376c11.59375 24.230469 27.914062 46.222656 48.410156 64.449219l3.535156 3.144531v50.78125c-7.03125 2.328125-13.695312 5.304688-20.015625 8.746094-15.074219-64.097656-73.25-111.121094-139.984375-111.121094-79.398438 0-144 64.601562-144 144s64.601562 144 144 144c33.558594 0 65.535156-11.65625 91.289062-32.878906 8.535157 17.078125 21.519532 31.789062 37.589844 42.886718-7.679687 3.847657-16.078125 5.992188-24.878906 5.992188zm96 0c-48.351562 0-88.984375-30.664062-100.574219-72h201.148438c-11.589844 41.335938-52.222657 72-100.574219 72zm0 0" fill="url(#a)"/></svg>