<svg height="496pt" viewBox="0 0 496 496" width="496pt" xmlns="http://www.w3.org/2000/svg" xmlns:xlink="http://www.w3.org/1999/xlink"><linearGradient id="a" gradientUnits="userSpaceOnUse" x1="248" x2="248" y1="496" y2="0"><stop offset="0" stop-color="#9f2fff"/><stop offset="1" stop-color="#0bb1d3"/></linearGradient><path d="m364.113281 315.976562c10.0625-44.136718 24.621094-87.152343 43.65625-128.382812 5.382813-11.664062 8.230469-24.625 8.230469-37.480469v-12.671875c0-49.3125-40.128906-89.441406-89.441406-89.441406-16.207032 0-32.117188 4.40625-46.015625 12.742188l-3.328125 2 12.546875-62.742188h-72.402344l-10.558594 56.320312c-11.695312-5.382812-24.410156-8.320312-37.359375-8.320312-49.3125 0-89.441406 40.128906-89.441406 89.441406v12.671875c0 12.847657 2.847656 25.816407 8.230469 37.480469 19.035156 41.230469 33.585937 84.246094 43.65625 128.382812-59.039063 30.09375-103.414063 80.832032-125.253907 143.632813l-6.632812 19.039063v17.351562h496v-17.351562l-6.625-19.039063c-21.839844-62.792969-66.222656-113.539063-125.261719-143.632813zm-82.28125-237.34375 6.9375-4.167968c11.414063-6.847656 24.476563-10.464844 37.789063-10.464844 40.496094 0 73.441406 32.945312 73.441406 73.441406v12.671875c0 10.550781-2.335938 21.191407-6.761719 30.773438-27.199219 58.9375-45.652343 121.410156-54.832031 185.65625l-8.007812 56.113281c-.757813 5.328125-5.398438 9.34375-10.773438 9.34375-5.21875 0-9.714844-3.71875-10.6875-8.847656l-24.585938-129.074219c-.199218-1.03125-.566406-1.988281-.847656-2.988281 45.496094-12.929688 76.496094-49.265625 76.496094-91.089844 0-32.847656-19.351562-62.929688-51.0625-80.535156l14.535156-39.464844h-44.242187c.867187-.464844 1.769531-.863281 2.601562-1.367188zm-61.535156 197.910157c-40.433594-10.128907-68.296875-40.992188-68.296875-76.542969 0-1.65625.089844-3.296875.214844-4.945312l18.832031 11.296874 23.296875 23.296876 11.3125-11.3125-15.425781-15.425782 28.738281-11.496094-5.945312-14.855468-36.3125 14.53125-21.078126-12.648438c5.902344-17.328125 18.75-32.714844 36.390626-43.351562l-1.664063 8.910156h56.320313l-13.054688 84.886719c-.738281 4.792969.648438 9.648437 3.808594 13.328125 3.140625 3.671875 7.734375 5.785156 12.574218 5.785156 6.921876 0 13.175782-4.359375 15.566407-10.855469l37.753906-102.472656c25.328125 14.902344 40.671875 39.128906 40.671875 65.328125 0 24.289062-13.039062 46.367188-34.167969 61.183594l-5.328125-20.304688 14.65625-29.304687-14.3125-7.160157-17.34375 34.699219 7.984375 30.398438c-6.160156 2.914062-12.777343 5.273437-19.777343 7.023437-6.847657-7.726562-16.800782-12.535156-27.710938-12.535156s-20.863281 4.808594-27.703125 12.542969zm10.34375-260.542969h39.597656l-16 80h46.289063l-49.96875 135.617188-1 .183593c-.175782-.207031-.152344-.402343-.132813-.472656l15.902344-103.328125h-55.679687zm-134.640625 134.113281v-12.671875c0-40.496094 32.945312-73.441406 73.441406-73.441406 11.992188 0 23.726563 3.089844 34.285156 8.679688l-7.957031 42.433593c-36.425781 16.496094-59.769531 49.359375-59.769531 84.886719 0 41.824219 31 78.160156 76.496094 91.089844-.28125 1-.648438 1.957031-.847656 2.988281l-24.585938 129.082031c-.972656 5.121094-5.46875 8.839844-10.6875 8.839844-5.375 0-10.007812-4.015625-10.773438-9.34375l-8.015624-56.113281c-9.179688-64.246094-27.625-126.71875-54.824219-185.65625-4.425781-9.574219-6.761719-20.222657-6.761719-30.773438zm-79.527344 329.886719 5.261719-15.144531c20.007813-57.511719 60.160156-104.253907 113.609375-132.679688 2.449219 12.144531 4.65625 24.34375 6.410156 36.632813l8.015625 56.113281c1.871094 13.15625 13.308594 23.078125 26.605469 23.078125 12.890625 0 24-9.191406 26.410156-21.847656l24.582032-129.074219c1.878906-9.902344 10.5625-17.078125 20.632812-17.078125s18.753906 7.175781 20.632812 17.078125l24.582032 129.066406c2.417968 12.664063 13.519531 21.855469 26.410156 21.855469 13.296875 0 24.734375-9.921875 26.605469-23.078125l8.015625-56.113281c1.753906-12.289063 3.960937-24.488282 6.410156-36.632813 53.449219 28.425781 93.601562 75.175781 113.609375 132.679688l5.261719 15.144531zm0 0" fill="url(#a)"/></svg>