<svg height="498pt" viewBox="-1 0 498 498.768" width="498pt" xmlns="http://www.w3.org/2000/svg" xmlns:xlink="http://www.w3.org/1999/xlink"><linearGradient id="a" gradientUnits="userSpaceOnUse" x1="248.384" x2="248.384" y1="498.7656" y2="0"><stop offset="0" stop-color="#9f2fff"/><stop offset="1" stop-color="#0bb1d3"/></linearGradient><path d="m264.382812 216h16c0 17.648438-14.351562 32-32 32-17.648437 0-32-14.351562-32-32h16c0 8.824219 7.175782 16 16 16 8.824219 0 16-7.175781 16-16zm-56-64c-4.414062 0-8 3.585938-8 8s3.585938 8 8 8c4.417969 0 8-3.585938 8-8s-3.582031-8-8-8zm80 0c-4.414062 0-8 3.585938-8 8s3.585938 8 8 8c4.417969 0 8-3.585938 8-8s-3.582031-8-8-8zm208-62.0625c0 11.199219-4.359374 21.734375-12.277343 29.65625l-67.722657 67.71875-48-48v44.6875c0 20.441406-15.472656 37.160156-35.285156 39.519531-5.792968 20.839844-19.035156 38.578125-36.714844 50.136719v16.574219l81.714844 27.242187c22.894532 7.632813 38.285156 28.984375 38.285156 53.121094v93.40625c0 8.824219-7.175781 16-16 16h-104c-7.390624 0-14.125-2.625-19.550781-6.847656l-28.449219 25.617187-28.453124-25.609375c-5.425782 4.214844-12.152344 6.839844-19.546876 6.839844h-104c-8.824218 0-16-7.175781-16-16v-93.40625c0-24.144531 15.394532-45.496094 38.289063-53.121094l81.710937-27.242187v-16.574219c-17.679687-11.558594-30.910156-29.304688-36.710937-50.136719-6.328125-.75-12.238281-2.824219-17.3125-6.183593l-65.976563 65.976562-67.71875-67.71875c-7.921874-7.921875-12.28125-18.449219-12.28125-29.65625 0-23.121094 18.816407-41.9375 41.9375-41.9375 11.199219 0 21.734376 4.359375 29.65625 12.28125l8.40625 8.40625 8.410157-8.40625c7.917969-7.921875 18.453125-12.28125 29.65625-12.28125 3.359375 0 6.679687.496094 9.933593 1.3125v-25.3125c0-66.167969 53.832032-120 120-120 43.570313 0 81.664063 23.40625 102.6875 58.230469 7.496094-6.503907 17.042969-10.230469 27.25-10.230469 11.199219 0 21.734376 4.359375 29.65625 12.28125l8.40625 8.40625 8.410157-8.40625c7.917969-7.921875 18.445312-12.28125 29.65625-12.28125 23.117187 0 41.933593 18.816406 41.933593 41.9375zm-352 30.0625v32.207031c4.671876-3.535156 10.058594-6.183593 16-7.390625v-24.816406h16v8h8c22.539063 0 44.074219-10.769531 57.601563-28.808594l6.398437-8.519531 6.402344 8.519531c13.527344 18.039063 35.0625 28.808594 57.597656 28.808594h8v-8h16v24.808594c5.945313 1.214844 11.328126 3.855468 16 7.390625v-32.199219c0-57.34375-46.65625-104-104-104s-104 46.65625-104 104zm-64 140.6875 54.664063-54.664062c-4.191406-6.328126-6.664063-13.886719-6.664063-22.023438v-21.894531c-9.65625-4.007813-20.984374-1.800781-28.277343 5.488281l-19.722657 19.71875-19.71875-19.71875c-4.894531-4.898438-11.417968-7.59375-18.34375-7.59375-14.304687 0-25.9375 11.632812-25.9375 25.9375 0 6.925781 2.695313 13.445312 7.59375 18.34375zm80.335938-54.054688c-.167969-2.199218-.335938-4.394531-.335938-6.632812v-38.527344c-9.285156 3.3125-16 12.113282-16 22.527344 0 10.535156 6.875 19.414062 16.335938 22.632812zm55.664062 241.367188c0-8.824219-7.175781-16-16-16h-72v-16h-32v48h104c8.824219 0 16-7.175781 16-16zm32 29.230469 18.5625-16.710938c-1.640624-3.839843-2.5625-8.070312-2.5625-12.519531 0-17.648438 14.351563-32 32-32h18.824219c3.296875-4.6875 5.175781-10.238281 5.175781-16.03125v-3.96875c0-15.441406-12.558593-28-28-28-6.023437 0-11.984374 1.992188-16.796874 5.601562l-27.203126 20.398438-27.191406-20.398438c-4.824218-3.609374-10.785156-5.601562-16.808594-5.601562-15.4375 0-28 12.558594-28 28v3.96875c0 5.792969 1.882813 11.34375 5.175782 16.03125h18.824218c17.648438 0 32 14.351562 32 32 0 4.449219-.917968 8.679688-2.558593 12.527344zm152-13.230469v-48h-32v16h-72c-8.824218 0-16 7.175781-16 16s7.175782 16 16 16zm-109.839843-158.847656-42.160157 42.160156-42.160156-42.160156-82.488281 27.496094c-16.359375 5.457031-27.351563 20.703124-27.351563 37.945312v29.40625h32v-32h16v48h19.050782c-1.984375-5.0625-3.050782-10.488281-3.050782-16.03125v-3.96875c0-24.257812 19.746094-44 44-44 9.464844 0 18.832032 3.128906 26.410157 8.808594l17.589843 13.191406 17.601563-13.191406c7.566406-5.679688 16.9375-8.808594 26.398437-8.808594 24.257813 0 44 19.742188 44 44v3.96875c0 5.542969-1.0625 10.96875-3.046874 16.03125h19.046874v-48h16v32h32v-29.40625c0-17.242188-10.992187-32.496094-27.351562-37.945312zm-10.160157-23.265625c-9.933593 3.898437-20.703124 6.113281-32 6.113281-11.292968 0-22.0625-2.214844-32-6.113281v10.800781l32 32 32-32zm40-81.886719v-56h-8c-24.222656 0-47.496093-10.167969-64-27.617188-16.503906 17.449219-39.773437 27.617188-64 27.617188h-8v56c0 39.703125 32.296876 72 72 72 39.707032 0 72-32.296875 72-72zm32-16c0-10.414062-6.710937-19.214844-16-22.527344v38.527344c0 2.238281-.167968 4.433594-.335937 6.632812 9.464844-3.21875 16.335937-12.097656 16.335937-22.632812zm128-94.0625c0-14.304688-11.628906-25.9375-25.933593-25.9375-6.929688 0-13.449219 2.695312-18.34375 7.59375l-19.722657 19.71875-19.71875-19.71875c-4.894531-4.898438-11.417968-7.59375-18.34375-7.59375-7.609374 0-14.542968 3.480469-19.441406 9.214844 5.679688 13.359375 8.882813 27.992187 9.328125 43.296875l48.175781 48.175781 56.410157-56.40625c4.894531-4.898438 7.589843-11.417969 7.589843-18.34375zm0 0" fill="url(#a)"/></svg>