<svg height="496pt" viewBox="0 0 496 496.712" width="496pt" xmlns="http://www.w3.org/2000/svg" xmlns:xlink="http://www.w3.org/1999/xlink"><linearGradient id="a" gradientUnits="userSpaceOnUse" x1="248.356" x2="248.356" y1="496.7112" y2="0"><stop offset="0" stop-color="#9f2fff"/><stop offset="1" stop-color="#0bb1d3"/></linearGradient><path d="m112.355469 360h16v16h-16zm0-16h16v-16h-16zm0-32h16v-16h-16zm288 128c0 13.230469-10.765625 24-24 24h-24v32h-16v-80h40c13.234375 0 24 10.769531 24 24zm-16 0c0-4.414062-3.582031-8-8-8h-24v16h24c4.417969 0 8-3.585938 8-8zm88-24c-6.167969 0-11.742188 2.40625-16 6.238281-4.253907-3.839843-9.832031-6.238281-16-6.238281-13.230469 0-24 10.769531-24 24v56h16v-56c0-4.414062 3.585937-8 8-8 4.417969 0 8 3.585938 8 8v56h16v-56c0-4.414062 3.585937-8 8-8 4.417969 0 8 3.585938 8 8v56h16v-56c0-13.230469-10.765625-24-24-24zm-216 16h16v64h16v-80h-32zm48 64h16v-16h-16zm192-336c0 88.222656-71.777344 160-160 160-61.589844 0-116.503907-34.511719-143.382813-88.960938-8.570312 9.367188-18.664062 17.464844-30.089844 23.808594-6.488281 3.617188-10.527343 10.480469-10.527343 17.914063 0 6.855469 3.410156 13.230469 9.121093 17.039062 41.136719 27.421875 62.878907 65.535157 62.878907 110.199219v48.710938c8.824219 0 16 7.175781 16 16v16c0 8.824218-7.175781 16-16 16h-208c-8.824219 0-16-7.175782-16-16v-16c0-8.824219 7.175781-16 16-16v-48.710938c0-44.664062 21.746093-82.777344 62.878906-110.199219 5.714844-3.808593 9.121094-10.175781 9.121094-17.039062 0-7.433594-4.039063-14.296875-10.527344-17.90625-37.921875-21.0625-61.472656-61.085938-61.472656-104.464844v-54.390625c-8.824219 0-16-7.175781-16-16v-16c0-8.824219 7.175781-16 16-16h205.945312c29.960938-30.480469 71.253907-48 114.054688-48 88.222656 0 160 71.777344 160 160zm-480-80h208.015625l-.015625-16h-208zm16 16v16h128v16h-128v22.390625c0 1.425781.089843 2.839844.144531 4.265625 10.832031-4.894531 27.808594-10.65625 47.855469-10.65625 14.480469 0 31.390625 3 50.984375 6.472656 22.914062 4.054688 48.640625 8.566406 76.527344 9.367188.289062-3.128906.488281-6.273438.488281-9.449219v-22.390625h-32v-16h32v-16zm192 368.710938h-208v16h208.007812zm-39.816407-16c-15.589843-8.566407-29.925781-19.144532-42.527343-31.742188-5.703125-5.703125-13.589844-8.96875-21.65625-8.96875-8.0625 0-15.953125 3.265625-21.65625 8.96875-12.597657 12.597656-26.933594 23.167969-42.527344 31.742188zm20.601563-272.925782c-28.136719-1-53.71875-5.511718-76.601563-9.570312-18.839843-3.335938-35.109374-6.214844-48.183593-6.214844-20.480469 0-37.414063 7.105469-45.832031 11.414062 6.046874 29.128907 24.472656 54.683594 51.066406 69.449219 11.582031 6.433594 18.765625 18.648438 18.765625 31.898438 0 12.222656-6.070313 23.566406-16.238281 30.351562-37 24.671875-55.761719 57.261719-55.761719 96.886719v43.054688l10.257812-5.125c16.597657-8.304688 31.664063-19.167969 44.773438-32.273438 8.679687-8.679688 20.699219-13.65625 32.96875-13.65625 12.273437 0 24.289062 4.976562 32.96875 13.65625 13.113281 13.113281 28.167969 23.96875 44.777343 32.273438l10.253907 5.125v-43.054688c0-39.625-18.757813-72.214844-55.757813-96.886719-10.167968-6.785156-16.242187-18.128906-16.242187-30.351562 0-13.242188 7.183593-25.464844 18.769531-31.890625 25.246094-14.03125 43.09375-37.78125 50.015625-65.085938zm274.808594-7.785156h-55.59375v-16h55.59375c-4.042969-73.007812-62.585938-131.550781-135.59375-135.59375v55.59375h-16v-55.601562c-34.152344 1.847656-65.757813 15.417968-90.609375 38.898437 1.640625 2.511719 2.609375 5.496094 2.609375 8.703125v16c0 8.824219-7.175781 16-16 16v54.390625c0 .539063-.046875 1.074219-.054688 1.609375h24.054688v16h-25.34375c-2.632813 17.632812-9.136719 34.296875-18.886719 48.863281 21.726562 50.585938 69.503906 83.863281 124.238281 86.839844v-55.703125h16v55.59375c73-4.042969 131.542969-62.585938 135.585938-135.59375zm-107.882813-53.855469-17.527344 30.375c3.578126 4.183594 5.816407 9.550781 5.816407 15.480469 0 13.230469-10.765625 24-24 24-13.230469 0-24-10.769531-24-24 0-10.414062 6.710937-19.214844 16-22.527344v-49.472656h16v42.144531l13.847656-24zm-27.710937 45.855469c0-4.414062-3.582031-8-8-8-4.414063 0-8 3.585938-8 8s3.585937 8 8 8c4.417969 0 8-3.585938 8-8zm0 0" fill="url(#a)"/></svg>