<svg height="496pt" viewBox="0 0 496 496" width="496pt" xmlns="http://www.w3.org/2000/svg" xmlns:xlink="http://www.w3.org/1999/xlink"><linearGradient id="a" gradientUnits="userSpaceOnUse" x1="248" x2="248" y1="496" y2="0"><stop offset="0" stop-color="#9f2fff"/><stop offset="1" stop-color="#0bb1d3"/></linearGradient><path d="m168.230469 96.023438-.46875-16c11.015625-.28125 21.78125 2.496093 31.214843 8.160156l6.96875 4.175781c25.375 15.234375 58.71875 15.242187 84.125-.023437l6.632813-3.96875c5.488281-3.277344 10.960937-5.558594 16.289063-6.800782 5.054687-1.167968 10.183593-1.671875 15.230468-1.542968l-.46875 16c-3.707031-.160157-7.441406.273437-11.152344 1.136718-3.707031.855469-7.640624 2.519532-11.699218 4.9375l-6.613282 3.957032c-12.882812 7.746093-27.386718 12.175781-42.304687 13.402343v96.542969h-16v-96.542969c-14.914063-1.234375-29.410156-5.648437-42.28125-13.378906l-6.96875-4.175781c-6.78125-4.078125-14.566406-6.125-22.503906-5.878906zm321.144531 363.585937 6.625 19.039063v17.351562h-496v-17.351562l6.625-19.039063c21.839844-62.808594 66.230469-113.539063 125.277344-143.640625-2.980469-13.066406-6.4375-26.007812-10.207032-38.847656-.992187 3.480468-1.695312 7.085937-1.695312 10.878906h-16c0-22.054688-17.945312-40-40-40v-16c14.894531 0 27.769531-8.28125 34.648438-20.390625-3.328126-8.066406-6.785157-16.144531-10.425782-24.007813-5.453125-11.839843-8.222656-24.449218-8.222656-37.488281v-12.664062c0-49.320313 40.128906-89.449219 89.449219-89.449219 16.214843 0 32.125 4.40625 46.015625 12.753906l6.925781 4.15625c15.472656 9.28125 35.761719 9.28125 51.210937 0l6.941407-4.15625c13.890625-8.347656 29.792969-12.753906 46.007812-12.753906 49.320313 0 89.449219 40.128906 89.449219 89.449219v12.664062c0 13.039063-2.769531 25.648438-8.222656 37.488281-19.023438 41.214844-33.585938 84.230469-43.65625 128.382813 59.039062 30.09375 103.414062 80.832031 125.253906 143.625zm-393.375-309.496094c0 10.703125 2.273438 21.0625 6.761719 30.78125 1.679687 3.640625 3.191406 7.410157 4.824219 11.113281h12.414062c0 22.054688 17.945312 40 40 40v16c-10.496094 0-19.984375 4.152344-27.128906 10.785157 11.144531 35.101562 19.511718 71.304687 24.722656 107.757812l8.015625 56.113281c.757813 5.320313 5.390625 9.335938 10.765625 9.335938 5.21875 0 9.714844-3.71875 10.6875-8.839844l24.585938-129.082031c3.328124-17.429687 18.609374-30.078125 36.351562-30.078125s33.023438 12.648438 36.351562 30.078125l24.585938 129.074219c.972656 5.128906 5.46875 8.847656 10.6875 8.847656 5.375 0 10.007812-4.015625 10.765625-9.34375l8.015625-56.113281c9.195312-64.285157 27.640625-126.75 54.832031-185.65625 4.488281-9.71875 6.761719-20.070313 6.761719-30.773438v-12.664062c0-40.503907-32.945312-73.449219-73.449219-73.449219-13.3125 0-26.375 3.617188-37.78125 10.472656l-6.945312 4.160156c-20.410157 12.261719-47.238281 12.261719-67.664063 0l-6.929687-4.160156c-11.40625-6.855468-24.46875-10.472656-37.78125-10.472656-40.503907 0-73.449219 32.945312-73.449219 73.449219zm16 109.191407c4.753906-7.921876 11.390625-14.550782 19.304688-19.304688-7.921876-4.753906-14.550782-11.390625-19.304688-19.304688-4.753906 7.921876-11.390625 14.550782-19.304688 19.304688 7.914063 4.753906 14.550782 11.390625 19.304688 19.304688zm367.527344 220.695312-5.261719-15.144531c-20-57.511719-60.160156-104.253907-113.609375-132.6875-2.449219 12.144531-4.65625 24.34375-6.410156 36.640625l-8.015625 56.113281c-1.878907 13.15625-13.320313 23.078125-26.605469 23.078125-12.890625 0-23.992188-9.191406-26.410156-21.855469l-24.582032-129.066406c-1.878906-9.902344-10.5625-17.078125-20.632812-17.078125s-18.753906 7.175781-20.632812 17.078125l-24.582032 129.074219c-2.417968 12.65625-13.519531 21.847656-26.410156 21.847656-13.285156 0-24.726562-9.921875-26.605469-23.078125l-8.015625-56.113281c-1.753906-12.257813-3.984375-24.457032-6.441406-36.625-53.433594 28.433594-93.578125 75.175781-113.578125 132.671875l-5.261719 15.144531zm-423.527344-480v16h16v-16zm0 48h16v-16h-16zm32-16v-16h-16v16zm-48-16v16h16v-16zm-24 88v16h16v-16zm0 48h16v-16h-16zm32-16v-16h-16v16zm-48-16v16h16v-16zm32 160h-16v16h16zm-16 48h16v-16h-16zm32-16v-16h-16v16zm-48 0h16v-16h-16zm432-48v16h16v-16zm0 48h16v-16h-16zm32-16v-16h-16v16zm-48-16v16h16v-16zm64-104h-16v16h16zm-16 48h16v-16h-16zm16-16h16v-16h-16zm-32-16v16h16v-16zm48-152v16c-22.054688 0-40 17.945312-40 40h-16c0-22.054688-17.945312-40-40-40v-16c22.054688 0 40-17.945312 40-40h16c0 22.054688 17.945312 40 40 40zm-28.695312 8c-7.914063-4.753906-14.550782-11.390625-19.304688-19.304688-4.753906 7.914063-11.390625 14.550782-19.304688 19.304688 7.921876 4.753906 14.550782 11.390625 19.304688 19.304688 4.753906-7.914063 11.390625-14.550782 19.304688-19.304688zm0 0" fill="url(#a)"/></svg>