<svg height="496pt" viewBox="0 0 496 496" width="496pt" xmlns="http://www.w3.org/2000/svg" xmlns:xlink="http://www.w3.org/1999/xlink"><linearGradient id="a" gradientUnits="userSpaceOnUse" x1="248" x2="248" y1="496" y2="0"><stop offset="0" stop-color="#9f2fff"/><stop offset="1" stop-color="#0bb1d3"/></linearGradient><path d="m72.097656 265.273438 5.703125 45.621093c1.792969 14.3125 14.015625 25.105469 28.429688 25.105469 11.609375 0 21.992187-6.921875 26.449219-17.632812l29.410156-70.574219c1.972656-4.738281 6.558594-7.792969 11.679687-7.792969h4.460938c5.128906 0 9.714843 3.054688 11.679687 7.792969l29.410156 70.574219c4.464844 10.710937 14.847657 17.632812 26.449219 17.632812 14.414063 0 26.636719-10.792969 28.429688-25.105469l5.703125-45.621093c5.234375-41.867188 16.585937-82.65625 33.722656-121.226563 4.230469-9.527344 6.375-19.632813 6.375-30.054687v-7.992188c0-40.808594-33.191406-74-74-74-15.902344 0-31.671875 5.257812-44.398438 14.808594l-1.601562 1.191406c-13.753906 10.3125-34.238281 10.320312-48.007812-.007812l-1.59375-1.183594c-12.726563-9.550782-28.496094-14.808594-44.398438-14.808594-40.808594 0-74 33.191406-74 74v7.992188c0 10.421874 2.144531 20.527343 6.375 30.054687 17.136719 38.570313 28.488281 79.359375 33.722656 121.226563zm-24.097656-159.273438c0-31.984375 26.015625-58 58-58 12.464844 0 24.824219 4.121094 34.808594 11.609375l1.589844 1.191406c19.257812 14.457031 47.953124 14.445313 67.195312.007813l1.605469-1.207032c9.976562-7.480468 22.335937-11.601562 34.800781-11.601562 31.984375 0 58 26.015625 58 58v7.992188c0 8.167968-1.679688 16.097656-5 23.550781-17.777344 40.007812-29.542969 82.3125-34.976562 125.746093l-5.703126 45.621094c-.792968 6.320313-6.183593 11.089844-12.550781 11.089844-5.128906 0-9.714843-3.054688-11.679687-7.792969l-29.410156-70.574219c-4.464844-10.710937-14.847657-17.632812-26.449219-17.632812h-4.460938c-11.609375 0-21.992187 6.921875-26.449219 17.632812l-29.410156 70.574219c-1.964844 4.738281-6.558594 7.792969-11.679687 7.792969-6.367188 0-11.757813-4.769531-12.550781-11.089844l-5.703126-45.621094c-5.433593-43.433593-17.191406-85.738281-34.976562-125.746093-3.320312-7.453125-5-15.375-5-23.550781zm384 190h-13.335938l-17.0625-12.800781c-9.625-7.222657-21.5625-11.199219-33.601562-11.199219v-272h-368v496h368v-32c12.039062 0 23.976562-3.976562 33.601562-11.199219l17.0625-12.800781h13.335938v16h64v-176h-64zm-80-280v256h-40c-13.230469 0-24 10.769531-24 24s10.769531 24 24 24h40v32h-336v-336zm-336 464v-112h336v112zm397.335938-56-21.335938 16c-6.871094 5.160156-15.398438 8-24 8v-108.449219c8.910156 7.777344 20.472656 12.449219 32.984375 12.449219h7.015625v-16h-7.015625c-15.746094 0-29.398437-10.664062-33.222656-25.9375l-1.515625-6.0625h-54.246094c-4.40625 0-8-3.585938-8-8s3.59375-8 8-8h56c8.601562 0 17.128906 2.839844 24 8l21.335938 16h18.664062v112zm34.664062-128h32v144h-32zm-416 88h16v16h-16zm32 0h112v16h-112zm-32 32h16v16h-16zm32 0h112v16h-112zm-32 32h16v16h-16zm32 0h112v16h-112zm128 16h144v-80h-144zm16-64h112v48h-112zm-103.542969-284.230469-30.113281-30.113281 11.3125-11.3125 29.65625 29.65625h52.101562l52.179688-7.457031 22.007812-29.34375 12.796876 9.59375-25.992188 34.65625-47.351562 6.765625 17.800781 29.664062-13.71875 8.234375-21.664063-36.113281h-42.25l6.042969 42.289062 40.734375 16.296876v29.414062h-16v-18.585938l-27.097656-10.828124-13.308594 39.949218-15.179688-5.0625 15.402344-46.199218zm0 0" fill="url(#a)"/></svg>