<?xml version="1.0"?>
<svg xmlns="http://www.w3.org/2000/svg" xmlns:xlink="http://www.w3.org/1999/xlink" id="Layer_1" data-name="Layer 1" viewBox="0 0 512 512" width="512" height="512"><defs><linearGradient id="linear-gradient" x1="256" y1="489" x2="256" y2="26.9" gradientUnits="userSpaceOnUse"><stop offset="0.322" stop-color="#a163f5"/><stop offset="0.466" stop-color="#b074ee"/><stop offset="0.752" stop-color="#d8a1dd"/><stop offset="0.898" stop-color="#efbad3"/></linearGradient><linearGradient id="linear-gradient-2" x1="372.5" y1="489" x2="372.5" y2="26.9" xlink:href="#linear-gradient"/></defs><title>tooth with plus</title><path d="M430.7,65.87c-17.36-30.182-47.546-46.781-85.254-46.781-15.635,0-36.6,6.773-58.793,13.779C266.443,39.247,245.544,46,232.06,46h-.014c-13.478,0-34.37-6.776-54.574-13.172-22.208-7.03-43.185-13.749-58.833-13.749-29.532,0-54.808,10.58-73.1,30.673C27.5,69.579,17.957,96.782,17.957,128.459c0,20.566,12.524,48.789,24.636,76.092,11.346,25.576,23.077,52.017,22.764,68.527-.25,13.136-.613,59.653,5.2,106.722,6.288,50.912,17.62,85.027,33.683,101.4,7.685,7.832,16.511,11.8,26.232,11.8,21.191,0,36.8-41.824,60.518-110.063,8.4-24.173,16.336-47,24.068-64.5,11.325-25.631,16.8-26.687,16.985-26.717,1.277,0,8.325,1.445,21.8,29.968,9.42,19.94,19.032,46.618,28.327,72.417,22.762,63.176,35.45,96.143,52.838,96.143,24.216,0,40.981-25.945,51.254-79.318,7.9-41.06,10.36-89.562,11.975-121.866A119.913,119.913,0,0,0,430.7,65.87ZM372.515,408.284c-8.54,44.367-21.473,67.864-37.4,67.964-.754-.224-5.861-2.559-16.348-25.94-7.425-16.553-15.195-38.118-23.421-60.949-25.027-69.463-41.776-111.639-63.3-111.639-18.41,0-31.943,36.359-54.277,100.621-8.877,25.542-18.056,51.952-26.983,71.514C137.856,478.182,131.19,479,130.472,479c-5.9,0-11.215-2.489-16.239-7.608-29.925-30.5-36-138.843-34.879-198.053.373-19.614-11.448-46.262-23.964-74.475-11.52-25.97-23.433-52.824-23.433-70.424C31.957,71.354,66.792,33,118.639,33c13.485,0,34.391,6.775,54.608,13.175C195.44,53.2,216.4,60,232.041,60h.019c15.641,0,36.61-6.775,58.809-13.782,20.207-6.377,41.1-13.051,54.579-13.051,24.824,0,45.273,7.773,60.242,22.755a119.908,119.908,0,1,0-31.568,235.583c3.366,0,6.7-.149,10-.423C382.519,322.955,380.017,369.309,372.515,408.284ZM374.122,277.5A105.922,105.922,0,1,1,480.043,171.579,106.041,106.041,0,0,1,374.122,277.5Z" style="fill:url(#linear-gradient)"/><path d="M429.043,150H396V117a6.963,6.963,0,0,0-6.957-7h-32A7.037,7.037,0,0,0,350,117v33H316.043A7.037,7.037,0,0,0,309,157v32a7.037,7.037,0,0,0,7.043,7H350v34a7.037,7.037,0,0,0,7.043,7h32A6.963,6.963,0,0,0,396,230V196h33.043A6.963,6.963,0,0,0,436,189V157A6.963,6.963,0,0,0,429.043,150ZM422,182H389.043A7.037,7.037,0,0,0,382,189v34H364V189a6.963,6.963,0,0,0-6.957-7H323V164h34.043A6.963,6.963,0,0,0,364,157V124h18v33a7.037,7.037,0,0,0,7.043,7H422Z" style="fill:url(#linear-gradient-2)"/></svg>
